<svg xmlns="http://www.w3.org/2000/svg" width="1024" height="1024" viewBox="0 0 1024 1024">
<g>
<path d="M 537.50 999.98 C422.00,1007.28 302.53,966.91 209.50,889.15 C196.55,878.33 161.96,843.46 150.81,830.00 C125.33,799.22 104.67,767.38 87.55,732.50 C22.49,599.97 19.20,444.77 78.60,310.29 C132.40,188.49 231.82,95.12 355.03,50.67 C449.97,16.42 557.56,14.59 654.15,45.60 C789.10,88.93 898.36,192.08 952.20,327.00 C1024.95,509.31 983.47,718.96 847.05,858.35 C763.68,943.54 656.80,992.44 537.50,999.98 ZM 479.00 966.87 C505.31,969.00 546.16,967.54 573.51,963.48 C689.39,946.27 793.03,883.08 864.61,786.00 C913.14,720.19 941.86,643.86 950.59,557.50 C952.65,537.13 952.95,489.93 951.14,471.00 C945.13,408.11 930.91,356.26 905.50,304.50 C870.53,233.28 818.47,173.77 752.87,130.04 C694.20,90.93 634.24,68.54 563.50,59.32 C552.11,57.84 542.60,57.50 512.50,57.52 C472.51,57.54 460.36,58.58 430.20,64.58 C344.08,81.70 265.93,123.52 202.82,186.26 C124.45,264.16 79.30,364.02 70.93,477.92 C69.40,498.78 70.24,547.41 72.45,566.00 C83.86,661.81 120.55,745.42 181.73,815.00 C260.12,904.16 364.73,957.60 479.00,966.87 ZM 515.02 799.95 C512.98,808.44 510.91,815.53 510.41,815.70 C509.90,815.87 506.62,804.20 503.12,789.78 C482.91,706.62 462.12,663.75 408.27,594.23 C381.39,559.53 370.18,543.06 360.03,523.36 C350.62,505.10 343.68,484.32 340.35,464.44 C337.69,448.52 337.93,419.75 340.87,403.57 C346.87,370.44 363.41,337.46 385.90,313.77 C414.73,283.40 449.22,265.96 490.36,260.93 C504.31,259.23 534.49,260.29 547.50,262.94 C607.02,275.08 653.96,317.68 673.44,377.25 C689.01,424.81 684.84,474.80 661.39,521.96 C650.43,544.00 642.30,555.81 601.43,609.00 C582.10,634.15 565.81,660.07 553.33,685.50 C537.57,717.60 527.56,747.52 515.02,799.95 ZM 500.48 589.56 L 510.50 599.62 L 522.34 588.27 C532.11,578.90 538.21,574.25 557.34,561.57 C583.37,544.32 592.61,536.86 602.15,525.40 C624.32,498.79 635.05,469.67 635.12,436.00 C635.19,402.55 622.72,371.37 599.59,347.16 C575.74,322.19 546.87,309.99 511.62,310.00 C476.57,310.01 447.41,322.14 422.99,346.86 C404.20,365.89 393.00,386.77 387.39,413.23 C385.29,423.09 384.97,446.82 386.78,457.58 C391.42,485.22 404.76,511.24 424.74,531.65 C434.21,541.31 443.39,548.47 458.73,558.15 C480.61,571.97 489.96,579.00 500.48,589.56 ZM 556.50 883.18 C546.21,884.79 537.66,885.27 515.50,885.50 L 515.44 885.50 C497.12,885.68 490.17,885.75 483.26,885.21 C479.02,884.88 474.81,884.32 468.00,883.42 C414.01,876.24 362.26,855.48 319.00,823.66 C269.37,787.14 234.65,739.49 218.70,686.00 C214.57,672.15 213.72,668.00 215.02,668.00 C215.56,668.00 216.00,668.56 216.00,669.25 C216.01,672.31 231.57,701.69 239.30,713.25 C250.20,729.54 257.86,738.68 272.63,753.02 C310.85,790.11 357.23,812.09 412.84,819.48 C427.77,821.47 435.41,823.73 444.00,828.72 C452.34,833.57 463.42,844.50 469.45,853.81 C472.18,858.04 475.21,861.51 476.65,862.06 C479.40,863.10 487.31,863.29 490.66,862.39 C492.83,861.81 492.83,861.81 491.03,856.66 C484.25,837.23 455.13,781.71 439.02,757.50 C431.21,745.78 430.14,743.98 431.98,745.67 C433.32,746.92 434.13,746.75 440.57,743.91 C446.86,741.13 452.99,739.16 454.31,739.49 C458.46,740.54 460.00,741.44 460.53,743.11 C460.86,744.15 461.75,745.00 462.50,745.00 C463.25,745.00 464.18,746.01 464.57,747.25 C464.95,748.49 465.56,749.72 465.92,750.00 C467.33,751.08 472.83,775.74 476.49,797.43 C476.86,799.59 479.74,805.66 482.89,810.93 C486.05,816.19 493.49,828.96 499.44,839.30 C505.38,849.63 510.38,857.95 510.55,857.79 C510.71,857.62 518.29,844.72 527.38,829.11 C539.99,807.47 544.07,799.64 544.54,796.12 C545.73,787.38 551.91,757.49 553.77,751.50 C555.08,747.27 556.08,745.58 557.16,745.76 C558.76,746.03 566.00,739.84 566.00,738.20 C566.00,737.32 572.64,735.22 576.00,735.03 C576.83,734.98 579.53,734.72 582.00,734.46 C587.01,733.91 588.84,734.89 591.20,739.40 C592.69,742.26 592.62,742.43 586.26,751.40 C567.32,778.10 525.88,857.76 528.62,862.19 C529.02,862.85 532.29,863.07 537.35,862.77 C544.82,862.34 545.58,862.09 547.46,859.48 C557.07,846.15 561.89,840.50 567.72,835.76 C579.17,826.44 590.46,821.70 605.40,819.92 C646.78,815.02 683.61,801.81 715.67,780.40 C731.44,769.87 740.80,762.03 754.50,747.87 C773.13,728.62 790.15,703.60 800.47,680.33 C803.11,674.37 805.44,669.31 805.64,669.08 C808.13,666.22 804.00,683.53 798.38,699.50 C793.13,714.41 781.13,738.11 771.63,752.33 C734.17,808.42 675.01,851.38 607.00,871.88 C591.23,876.63 574.70,880.33 556.50,883.18 ZM 603.56 797.02 L 603.55 797.02 C587.96,798.96 585.47,799.27 585.08,798.50 C585.00,798.35 585.00,798.17 585.00,797.95 C585.00,797.37 586.35,793.72 588.00,789.84 C593.51,776.89 608.03,754.44 619.19,741.62 C622.01,738.37 622.57,738.07 622.57,739.79 C622.57,740.93 622.17,741.61 621.69,741.31 C621.20,741.01 620.96,741.55 621.15,742.52 C621.38,743.69 622.65,744.40 624.94,744.65 C626.83,744.86 630.20,745.53 632.44,746.14 C634.67,746.76 638.26,747.20 640.42,747.13 C642.74,747.05 645.05,747.64 646.08,748.57 C647.66,750.00 648.15,749.97 651.65,748.21 C655.69,746.18 658.00,746.28 658.00,748.47 C658.00,749.83 661.00,750.96 664.69,750.99 C665.90,750.99 667.49,751.86 668.22,752.90 C669.82,755.19 675.28,755.77 679.42,754.10 C682.90,752.69 685.01,753.31 685.69,755.92 C686.21,757.93 690.73,760.33 693.00,759.80 C693.83,759.61 694.64,760.96 695.17,763.38 C696.15,767.84 694.81,769.48 689.26,770.58 C687.48,770.93 686.23,771.57 686.50,771.99 C686.76,772.42 685.59,773.34 683.90,774.04 C682.21,774.74 680.31,775.82 679.66,776.43 C676.59,779.39 657.46,786.37 641.50,790.36 C628.35,793.64 622.63,794.65 603.56,797.02 ZM 435.55 797.92 C435.44,798.10 435.35,798.26 435.23,798.39 C434.54,799.15 432.76,798.94 417.88,797.11 L 416.48 796.94 C389.48,793.64 364.27,787.01 347.19,778.72 L 338.88 774.69 L 339.40 771.10 C339.69,769.12 339.94,766.94 339.96,766.25 C339.98,765.56 340.55,765.11 341.23,765.25 C341.90,765.39 342.61,764.46 342.80,763.19 C343.07,761.45 343.47,761.14 344.43,761.94 C345.34,762.70 346.60,762.55 348.86,761.42 C350.73,760.49 353.14,760.09 354.76,760.44 C356.27,760.76 359.08,760.55 361.00,759.97 C364.23,759.00 373.13,757.57 383.94,756.29 C388.09,755.80 391.12,754.09 391.04,752.29 C391.02,751.85 392.24,751.45 393.75,751.39 C395.26,751.32 398.18,750.56 400.23,749.70 C403.88,748.15 403.99,748.17 405.98,750.70 C407.09,752.11 408.00,753.63 408.00,754.07 C408.00,754.51 409.70,755.83 411.79,757.00 C414.41,758.48 417.14,761.63 420.71,767.31 C427.40,777.98 436.40,796.54 435.55,797.92 Z" fill="rgb(4,64,29)"/>
<path d="M 466.19 750.39 C466.09,750.19 466.00,750.06 465.92,750.00 C465.56,749.72 464.95,748.49 464.57,747.25 C464.18,746.01 463.25,745.00 462.50,745.00 C461.75,745.00 460.86,744.15 460.53,743.11 C460.00,741.44 458.46,740.54 454.31,739.49 C452.99,739.16 446.86,741.13 440.57,743.91 C434.13,746.75 433.32,746.92 431.98,745.67 C430.14,743.98 431.21,745.78 439.02,757.50 C440.71,760.05 442.55,762.94 444.50,766.11 C433.09,748.09 421.14,733.15 405.06,716.63 C386.91,698.00 372.37,686.28 336.27,661.20 C316.02,647.13 301.59,636.05 291.38,626.71 C288.38,623.98 285.72,621.94 285.47,622.20 C284.65,623.02 297.25,640.48 305.50,649.96 C313.32,658.95 325.43,670.12 343.50,685.03 C378.97,714.30 400.30,736.65 417.56,762.64 C417.64,762.75 417.72,762.87 417.80,762.98 C415.57,759.94 413.65,758.05 411.79,757.00 C409.70,755.83 408.00,754.51 408.00,754.07 C408.00,753.63 407.09,752.11 405.98,750.70 C403.99,748.17 403.88,748.15 400.23,749.70 C398.18,750.56 395.26,751.32 393.75,751.39 C392.24,751.45 391.02,751.85 391.04,752.29 C391.12,754.09 388.09,755.80 383.94,756.29 C373.13,757.57 364.23,759.00 361.00,759.97 C359.08,760.55 356.27,760.76 354.76,760.44 C353.14,760.09 350.73,760.49 348.86,761.42 C346.60,762.55 345.34,762.70 344.43,761.94 C343.47,761.14 343.07,761.45 342.80,763.19 C342.61,764.46 341.90,765.39 341.23,765.25 C340.55,765.11 339.98,765.56 339.96,766.25 C339.94,766.94 339.69,769.12 339.40,771.10 L 338.88 774.69 L 347.19 778.72 C349.79,779.99 352.58,781.21 355.54,782.39 C348.26,779.72 341.43,776.90 336.04,774.27 C316.79,764.85 296.52,750.51 280.67,735.11 C232.37,688.16 206.65,617.03 206.70,530.50 C206.71,510.79 208.37,482.39 209.59,481.10 C209.80,480.88 210.99,482.00 212.22,483.60 C218.32,491.46 229.50,503.25 237.07,509.80 C252.36,523.05 268.06,532.88 298.78,548.48 C338.01,568.38 363.28,586.76 390.77,615.38 C427.20,653.30 451.16,695.80 466.19,750.39 ZM 582.07 757.58 C583.56,755.30 584.96,753.23 586.26,751.40 C592.62,742.43 592.69,742.26 591.20,739.40 C588.84,734.89 587.01,733.91 582.00,734.46 C579.53,734.72 576.83,734.98 576.00,735.03 C572.64,735.22 566.00,737.32 566.00,738.20 C566.00,739.84 558.76,746.03 557.16,745.76 C556.08,745.58 555.08,747.27 553.77,751.50 C552.13,756.76 547.18,780.42 545.19,792.04 C546.98,781.19 550.70,763.27 553.64,751.66 C571.09,682.54 613.20,621.03 672.50,578.04 C685.99,568.26 700.10,559.99 727.50,545.79 C763.88,526.95 783.69,512.52 800.90,492.35 C805.52,486.93 809.64,482.36 810.07,482.19 C811.40,481.66 811.84,485.03 813.08,505.50 C815.51,545.69 811.76,587.40 802.54,622.50 C790.85,667.00 772.27,701.58 744.22,731.09 C725.65,750.62 703.00,766.43 677.79,777.72 C678.64,777.24 679.28,776.81 679.66,776.43 C680.31,775.82 682.21,774.74 683.90,774.04 C685.59,773.34 686.76,772.42 686.50,771.99 C686.23,771.57 687.48,770.93 689.26,770.58 C694.81,769.48 696.15,767.84 695.17,763.38 C694.64,760.96 693.83,759.61 693.00,759.80 C690.73,760.33 686.21,757.93 685.69,755.92 C685.01,753.31 682.90,752.69 679.42,754.10 C675.28,755.77 669.82,755.19 668.22,752.90 C667.49,751.86 665.90,750.99 664.69,750.99 C661.00,750.96 658.00,749.83 658.00,748.47 C658.00,746.28 655.69,746.18 651.65,748.21 C648.15,749.97 647.66,750.00 646.08,748.57 C645.05,747.64 642.74,747.05 640.42,747.13 C638.26,747.20 634.67,746.76 632.44,746.14 C630.20,745.53 626.83,744.86 624.94,744.65 C622.65,744.40 621.38,743.69 621.15,742.52 C620.96,741.55 621.20,741.01 621.69,741.31 C622.17,741.61 622.57,740.93 622.57,739.79 C622.57,738.07 622.01,738.37 619.19,741.62 C612.34,749.49 604.23,760.98 597.71,771.68 C600.24,767.40 602.90,763.18 605.45,759.48 C607.74,756.17 609.87,752.80 610.20,751.98 C611.59,748.50 627.88,730.39 642.12,716.50 C650.58,708.25 665.60,694.78 675.50,686.57 C695.21,670.22 711.22,655.08 719.47,645.00 C725.69,637.40 735.00,624.05 735.00,622.73 C735.00,622.23 732.64,623.91 729.75,626.46 C719.48,635.55 704.22,647.61 693.63,655.00 C648.69,686.38 634.21,697.72 617.18,714.88 C603.55,728.62 592.85,741.41 582.07,757.58 ZM 736.09 420.45 C732.45,422.34 729.51,422.36 725.33,420.54 C720.30,418.35 718.91,415.09 716.49,399.72 C712.52,374.61 706.86,356.57 696.05,334.50 C675.91,293.38 643.99,261.09 604.02,241.39 C591.13,235.04 580.07,231.11 565.00,227.53 C558.67,226.03 552.69,224.36 551.70,223.84 C548.64,222.20 546.01,216.79 546.00,212.13 C546.00,208.39 546.56,207.21 549.88,203.88 C554.77,198.99 557.71,198.88 573.84,202.93 C590.20,207.04 601.52,211.20 616.04,218.43 C651.17,235.93 680.64,262.23 703.53,296.52 C717.92,318.07 729.99,345.30 736.47,370.88 C739.27,381.92 743.00,403.73 743.00,409.00 C742.99,413.43 739.97,418.45 736.09,420.45 ZM 296.69 420.05 C292.65,422.51 288.37,422.52 284.37,420.08 C277.16,415.68 276.62,411.62 280.47,390.73 C294.57,314.43 341.52,251.21 408.29,218.61 C427.20,209.38 455.91,200.01 465.30,200.00 C474.71,200.00 480.24,211.17 475.04,219.70 C472.65,223.61 469.34,225.40 461.50,226.99 C442.79,230.78 415.32,242.59 397.00,254.73 C383.26,263.83 377.55,268.43 365.64,279.96 C332.54,312.01 310.62,355.72 303.61,403.70 C301.90,415.43 301.07,417.37 296.69,420.05 ZM 731.12 252.12 C727.72,255.51 726.65,256.00 722.60,256.00 L 717.96 256.00 L 699.73 237.65 C674.63,212.39 655.94,198.77 627.50,185.01 C607.92,175.53 586.79,168.66 567.62,165.51 C557.78,163.90 554.84,162.43 551.96,157.70 C548.10,151.38 550.52,142.85 557.13,139.43 C561.13,137.37 566.39,137.88 583.93,142.05 C639.53,155.26 687.71,184.39 726.11,228.00 C734.11,237.08 735.00,238.69 735.00,244.05 C735.00,247.58 734.39,248.85 731.12,252.12 ZM 303.75 256.00 C302.88,256.00 301.56,256.22 300.83,256.48 C300.10,256.75 297.62,256.11 295.32,255.06 C290.44,252.84 288.00,248.87 288.00,243.14 C288.00,238.09 291.91,233.01 308.95,215.91 C345.47,179.27 389.83,154.42 440.79,142.07 C447.55,140.43 455.76,138.79 459.03,138.42 C464.98,137.74 464.98,137.75 468.99,141.75 C472.57,145.34 473.00,146.28 473.00,150.63 C472.99,155.84 470.51,161.12 467.23,162.87 C466.21,163.43 459.54,165.05 452.43,166.48 C414.14,174.21 373.27,193.97 342.12,219.81 C336.62,224.38 326.08,234.40 318.72,242.06 C311.36,249.73 304.62,256.00 303.75,256.00 ZM 796.07 421.96 C793.88,423.08 791.50,423.96 790.79,423.91 C787.38,423.67 783.17,421.81 781.13,419.64 C778.75,417.10 778.22,414.29 776.02,392.50 C773.03,362.91 764.28,333.56 749.87,304.76 C746.09,297.21 743.00,290.01 743.00,288.76 C743.01,285.75 746.29,280.51 749.47,278.43 C753.13,276.03 759.30,276.10 762.70,278.58 C767.37,281.98 780.16,308.05 787.47,329.05 C795.19,351.23 799.91,373.84 802.14,399.28 C803.57,415.59 802.78,418.54 796.07,421.96 ZM 236.10 421.73 C234.23,422.98 231.76,423.98 230.60,423.96 C227.15,423.90 222.48,421.42 220.04,418.37 C217.84,415.61 217.78,414.99 218.34,402.50 C219.56,375.24 227.63,341.72 239.41,315.00 C246.77,298.31 256.28,280.88 259.22,278.68 C263.17,275.74 270.23,275.93 273.60,279.08 C276.73,282.00 279.00,286.16 279.00,288.96 C279.00,290.10 275.62,297.78 271.49,306.03 C256.23,336.49 248.70,359.90 244.56,389.78 C243.70,395.99 243.00,403.64 243.00,406.78 C243.00,413.74 240.74,418.63 236.10,421.73 ZM 739.69 483.05 C735.10,485.14 733.90,485.25 729.62,483.97 C723.97,482.27 719.00,475.50 719.00,469.49 C719.00,464.71 722.78,459.00 727.31,456.95 C732.70,454.50 736.69,454.51 740.76,456.99 C750.74,463.08 750.11,478.32 739.69,483.05 ZM 291.28 483.62 C286.43,485.70 281.45,484.70 277.27,480.80 C269.32,473.37 270.63,462.00 280.00,457.19 C290.68,451.70 301.60,458.85 300.72,470.77 C300.28,476.72 297.01,481.17 291.28,483.62 ZM 513.87 804.57 C510.95,816.84 509.00,821.37 509.00,815.86 C509.00,813.00 501.35,782.04 495.65,761.08 C498.19,770.13 500.66,779.66 503.12,789.78 C506.62,804.20 509.90,815.87 510.41,815.70 C510.81,815.56 512.26,810.87 513.87,804.57 ZM 215.60 668.24 C215.43,668.09 215.24,668.00 215.02,668.00 C213.72,668.00 214.57,672.15 218.70,686.00 C219.69,689.32 220.76,692.63 221.89,695.91 C218.15,685.43 215.11,675.02 213.26,666.00 C212.59,662.74 213.74,664.04 215.60,668.24 ZM 551.47 811.02 C537.06,838.82 527.44,860.29 528.62,862.19 C527.17,859.85 538.07,836.47 551.47,811.02 ZM 464.68 801.63 C476.34,823.39 487.22,845.73 491.03,856.66 C487.77,847.31 476.17,823.37 464.68,801.63 ZM 313.62 785.10 C343.24,803.22 376.15,814.61 412.84,819.48 C375.77,814.56 342.80,803.15 313.62,785.10 ZM 476.37 704.70 C461.10,668.58 440.97,636.45 408.27,594.23 C440.48,635.82 460.86,667.86 476.37,704.70 ZM 523.21 767.63 C532.37,733.91 541.13,710.36 553.33,685.50 C541.38,709.85 532.40,734.03 523.21,767.63 ZM 424.94 874.70 C405.36,869.40 386.85,862.45 368.89,853.69 C386.83,862.37 405.62,869.41 424.94,874.70 ZM 220.95 680.70 C218.02,674.85 216.01,670.35 216.00,669.25 C216.00,669.23 216.00,669.20 216.00,669.18 C216.30,669.89 216.62,670.66 216.95,671.50 C218.06,674.36 219.42,677.45 220.95,680.70 ZM 462.88 882.69 C464.58,882.95 466.29,883.19 468.00,883.42 C474.81,884.32 479.02,884.88 483.26,885.21 C485.19,885.36 487.12,885.47 489.30,885.53 C486.30,885.50 484.23,885.44 483.50,885.36 C476.47,884.63 469.60,883.74 462.88,882.69 ZM 399.73 794.43 C395.91,793.80 392.32,793.14 389.31,792.49 C386.06,791.79 382.51,790.91 378.81,789.88 C385.44,791.61 392.47,793.14 399.73,794.43 ZM 244.11 720.27 C242.56,718.07 240.97,715.74 239.30,713.25 C237.80,711.00 235.99,708.07 234.07,704.80 C237.30,710.13 240.71,715.38 244.11,720.27 ZM 279.58 759.51 C277.23,757.40 274.92,755.24 272.63,753.02 C268.69,749.19 265.26,745.74 262.13,742.42 C267.40,747.94 273.69,754.10 279.58,759.51 ZM 603.56 797.02 C609.08,796.33 613.48,795.76 617.26,795.22 C611.14,796.13 604.12,797.03 598.22,797.68 C599.80,797.49 601.57,797.27 603.55,797.02 ZM 585.20 797.09 C585.53,795.56 586.52,793.03 587.97,789.90 C586.72,792.86 585.64,795.68 585.20,797.09 ZM 430.49 785.14 C432.50,789.17 434.08,792.68 434.90,795.03 C434.03,792.66 432.43,789.10 430.49,785.14 ZM 644.31 789.63 C641.03,790.52 637.71,791.33 634.37,792.08 C636.56,791.58 638.88,791.01 641.50,790.36 C642.43,790.13 643.37,789.89 644.31,789.63 Z" fill="rgb(69,142,19)"/>
<path d="M 525.39 565.09 C517.63,568.89 510.66,571.97 509.89,571.94 C508.33,571.86 506.42,571.01 489.71,562.83 C483.22,559.66 475.24,555.42 471.96,553.39 L 466.00 549.72 L 466.00 516.54 C466.00,479.62 466.31,477.27 472.64,466.80 C483.19,449.34 505.86,441.24 525.00,448.07 C535.10,451.68 544.71,460.61 549.95,471.25 C552.85,477.14 553.33,479.33 554.15,490.39 C554.65,497.26 554.94,513.36 554.78,526.16 L 554.50 549.44 L 547.00 553.80 C542.88,556.21 533.15,561.28 525.39,565.09 ZM 523.71 432.87 C516.77,436.18 511.76,436.98 504.80,435.91 C494.99,434.39 486.48,427.66 480.88,417.00 C478.90,413.24 478.51,411.02 478.51,403.50 C478.50,395.82 478.89,393.66 481.18,388.78 C491.10,367.63 518.72,363.38 533.94,380.67 C539.85,387.38 542.25,394.65 541.83,404.50 C541.26,417.64 534.95,427.52 523.71,432.87 ZM 454.24 511.25 C454.01,527.61 453.52,540.99 453.16,540.98 C451.44,540.91 441.71,532.90 434.48,525.60 C425.77,516.80 417.15,505.15 412.00,495.19 C409.16,489.70 408.81,488.23 409.33,483.86 C411.26,467.56 424.52,455.51 440.50,455.54 C448.05,455.55 456.26,457.85 460.39,461.09 L 462.90 463.06 L 460.96 466.35 C459.89,468.16 458.03,472.30 456.83,475.57 C454.81,481.06 454.62,483.72 454.24,511.25 ZM 571.87 537.60 C569.32,539.47 566.95,541.00 566.62,541.00 C566.28,541.00 566.00,528.91 566.00,514.14 C566.00,499.36 565.55,484.85 565.00,481.89 C564.46,478.92 562.51,473.46 560.68,469.74 C556.81,461.87 556.94,461.59 566.00,457.94 C569.84,456.40 573.78,455.70 579.04,455.62 C585.66,455.53 587.39,455.92 593.25,458.80 C603.52,463.86 609.74,472.76 610.68,483.76 C611.23,490.17 609.98,493.18 601.19,506.50 C596.04,514.29 579.02,532.34 571.87,537.60 ZM 589.51 446.14 C584.80,448.28 575.85,448.51 571.50,446.61 C560.55,441.83 555.09,430.09 558.44,418.54 C561.50,408.02 569.38,402.00 580.07,402.00 C593.46,402.00 603.00,411.89 603.00,425.78 C603.00,433.83 597.14,442.67 589.51,446.14 ZM 449.88 446.06 C444.64,448.73 435.83,448.66 430.23,445.88 C421.06,441.35 415.89,430.65 417.99,420.56 C419.38,413.83 422.24,409.48 427.85,405.54 C431.83,402.74 432.84,402.50 440.50,402.50 C448.15,402.50 449.18,402.75 453.12,405.52 C461.56,411.45 465.37,424.09 461.50,433.34 C459.45,438.26 454.45,443.73 449.88,446.06 Z" fill="rgb(218,152,44)"/>
<path d="M 0.00 512.00 L 0.00 0.00 L 512.00 0.00 L 1024.00 0.00 L 1024.00 512.00 L 1024.00 1024.00 L 512.00 1024.00 L 0.00 1024.00 L 0.00 512.00 ZM 537.50 999.98 C656.80,992.44 763.68,943.54 847.05,858.35 C983.47,718.96 1024.95,509.31 952.20,327.00 C898.36,192.08 789.10,88.93 654.15,45.60 C557.56,14.59 449.97,16.42 355.03,50.67 C231.82,95.12 132.40,188.49 78.60,310.29 C19.20,444.77 22.49,599.97 87.55,732.50 C104.67,767.38 125.33,799.22 150.81,830.00 C161.96,843.46 196.55,878.33 209.50,889.15 C302.53,966.91 422.00,1007.28 537.50,999.98 ZM 479.00 966.87 C364.73,957.60 260.12,904.16 181.73,815.00 C120.55,745.42 83.86,661.81 72.45,566.00 C70.24,547.41 69.40,498.78 70.93,477.92 C79.30,364.02 124.45,264.16 202.82,186.26 C265.93,123.52 344.08,81.70 430.20,64.58 C460.36,58.58 472.51,57.54 512.50,57.52 C542.60,57.50 552.11,57.84 563.50,59.32 C634.24,68.54 694.20,90.93 752.87,130.04 C818.47,173.77 870.53,233.28 905.50,304.50 C930.91,356.26 945.13,408.11 951.14,471.00 C952.95,489.93 952.65,537.13 950.59,557.50 C941.86,643.86 913.14,720.19 864.61,786.00 C793.03,883.08 689.39,946.27 573.51,963.48 C546.16,967.54 505.31,969.00 479.00,966.87 ZM 556.50 883.18 C574.70,880.33 591.23,876.63 607.00,871.88 C675.01,851.38 734.17,808.42 771.63,752.33 C781.13,738.11 793.13,714.41 798.38,699.50 C804.00,683.53 808.13,666.22 805.64,669.08 C805.44,669.31 803.11,674.37 800.47,680.33 C790.15,703.60 773.13,728.62 754.50,747.87 C740.80,762.03 731.44,769.87 715.67,780.40 C683.61,801.81 646.78,815.02 605.40,819.92 C590.46,821.70 579.17,826.44 567.72,835.76 C561.89,840.50 557.07,846.15 547.46,859.48 C545.58,862.09 544.82,862.34 537.35,862.77 C532.29,863.07 529.02,862.85 528.62,862.19 C527.37,860.16 538.36,835.94 554.35,805.50 C577.51,761.40 592.57,739.68 617.18,714.88 C634.21,697.72 648.69,686.38 693.63,655.00 C704.22,647.61 719.48,635.55 729.75,626.46 C732.64,623.91 735.00,622.23 735.00,622.73 C735.00,624.05 725.69,637.40 719.47,645.00 C711.22,655.08 695.21,670.22 675.50,686.57 C665.60,694.78 650.58,708.25 642.12,716.50 C627.88,730.39 611.59,748.50 610.20,751.98 C609.87,752.80 607.74,756.17 605.45,759.48 C595.36,774.10 583.57,796.90 585.24,798.58 C585.92,799.25 608.95,796.66 622.50,794.39 C669.85,786.45 712.85,764.09 744.22,731.09 C772.27,701.58 790.85,667.00 802.54,622.50 C811.76,587.40 815.51,545.69 813.08,505.50 C811.84,485.03 811.40,481.66 810.07,482.19 C809.64,482.36 805.52,486.93 800.90,492.35 C783.69,512.52 763.88,526.95 727.50,545.79 C700.10,559.99 685.99,568.26 672.50,578.04 C613.20,621.03 571.09,682.54 553.64,751.66 C550.30,764.89 545.93,786.28 544.56,796.12 C544.07,799.62 539.92,807.60 527.38,829.11 C518.29,844.72 510.71,857.62 510.55,857.79 C510.38,857.95 505.38,849.63 499.44,839.30 C493.49,828.96 486.05,816.19 482.89,810.93 C479.74,805.66 476.86,799.59 476.49,797.43 C463.20,719.09 437.04,663.55 390.77,615.38 C363.28,586.76 338.01,568.38 298.78,548.48 C268.06,532.88 252.36,523.05 237.07,509.80 C229.50,503.25 218.32,491.46 212.22,483.60 C210.99,482.00 209.80,480.88 209.59,481.10 C208.37,482.39 206.71,510.79 206.70,530.50 C206.65,617.03 232.37,688.16 280.67,735.11 C296.52,750.51 316.79,764.85 336.04,774.27 C349.89,781.04 373.24,789.03 389.31,792.49 C404.49,795.76 434.09,799.31 435.38,798.02 C436.79,796.61 426.32,775.81 417.56,762.64 C400.30,736.65 378.97,714.30 343.50,685.03 C325.43,670.12 313.32,658.95 305.50,649.96 C297.25,640.48 284.65,623.02 285.47,622.20 C285.72,621.94 288.38,623.98 291.38,626.71 C301.59,636.05 316.02,647.13 336.27,661.20 C372.37,686.28 386.91,698.00 405.06,716.63 C423.71,735.79 436.81,752.82 449.94,775.00 C463.95,798.68 486.30,843.08 491.03,856.66 C492.83,861.81 492.83,861.81 490.66,862.39 C487.31,863.29 479.40,863.10 476.65,862.06 C475.21,861.51 472.18,858.04 469.45,853.81 C463.42,844.50 452.34,833.57 444.00,828.72 C435.41,823.73 427.77,821.47 412.84,819.48 C367.33,813.44 327.64,797.36 292.82,770.86 C282.66,763.14 263.05,744.25 254.30,733.75 C240.72,717.48 224.09,689.76 216.95,671.50 C214.35,664.85 212.44,662.01 213.26,666.00 C216.79,683.20 224.62,705.48 233.50,723.55 C259.65,776.79 305.54,821.61 364.50,851.50 C400.64,869.82 438.87,880.70 483.50,885.36 C485.70,885.59 500.10,885.65 515.50,885.50 C537.66,885.27 546.21,884.79 556.50,883.18 ZM 513.95 804.25 C526.81,749.93 537.44,717.88 553.33,685.50 C565.81,660.07 582.10,634.15 601.43,609.00 C642.30,555.81 650.43,544.00 661.39,521.96 C684.84,474.80 689.01,424.81 673.44,377.25 C653.96,317.68 607.02,275.08 547.50,262.94 C534.49,260.29 504.31,259.23 490.36,260.93 C449.22,265.96 414.73,283.40 385.90,313.77 C363.41,337.46 346.87,370.44 340.87,403.57 C337.93,419.75 337.69,448.52 340.35,464.44 C343.68,484.32 350.62,505.10 360.03,523.36 C370.18,543.06 381.39,559.53 408.27,594.23 C452.91,651.86 474.12,690.69 491.51,746.54 C496.40,762.27 509.00,812.19 509.00,815.86 C509.00,821.42 510.99,816.76 513.95,804.25 ZM 291.28 483.62 C297.01,481.17 300.28,476.72 300.72,470.77 C301.60,458.85 290.68,451.70 280.00,457.19 C270.63,462.00 269.32,473.37 277.27,480.80 C281.45,484.70 286.43,485.70 291.28,483.62 ZM 739.69 483.05 C750.11,478.32 750.74,463.08 740.76,456.99 C736.69,454.51 732.70,454.50 727.31,456.95 C722.78,459.00 719.00,464.71 719.00,469.49 C719.00,475.50 723.97,482.27 729.62,483.97 C733.90,485.25 735.10,485.14 739.69,483.05 ZM 236.10 421.73 C240.74,418.63 243.00,413.74 243.00,406.78 C243.00,403.64 243.70,395.99 244.56,389.78 C248.70,359.90 256.23,336.49 271.49,306.03 C275.62,297.78 279.00,290.10 279.00,288.96 C279.00,286.16 276.73,282.00 273.60,279.08 C270.23,275.93 263.17,275.74 259.22,278.68 C256.28,280.88 246.77,298.31 239.41,315.00 C227.63,341.72 219.56,375.24 218.34,402.50 C217.78,414.99 217.84,415.61 220.04,418.37 C222.48,421.42 227.15,423.90 230.60,423.96 C231.76,423.98 234.23,422.98 236.10,421.73 ZM 796.07 421.96 C802.78,418.54 803.57,415.59 802.14,399.28 C799.91,373.84 795.19,351.23 787.47,329.05 C780.16,308.05 767.37,281.98 762.70,278.58 C759.30,276.10 753.13,276.03 749.47,278.43 C746.29,280.51 743.01,285.75 743.00,288.76 C743.00,290.01 746.09,297.21 749.87,304.76 C764.28,333.56 773.03,362.91 776.02,392.50 C778.22,414.29 778.75,417.10 781.13,419.64 C783.17,421.81 787.38,423.67 790.79,423.91 C791.50,423.96 793.88,423.08 796.07,421.96 ZM 296.69 420.05 C301.07,417.37 301.90,415.43 303.61,403.70 C310.62,355.72 332.54,312.01 365.64,279.96 C377.55,268.43 383.26,263.83 397.00,254.73 C415.32,242.59 442.79,230.78 461.50,226.99 C469.34,225.40 472.65,223.61 475.04,219.70 C480.24,211.17 474.71,200.00 465.30,200.00 C455.91,200.01 427.20,209.38 408.29,218.61 C341.52,251.21 294.57,314.43 280.47,390.73 C276.62,411.62 277.16,415.68 284.37,420.08 C288.37,422.52 292.65,422.51 296.69,420.05 ZM 736.09 420.45 C739.97,418.45 742.99,413.43 743.00,409.00 C743.00,403.73 739.27,381.92 736.47,370.88 C729.99,345.30 717.92,318.07 703.53,296.52 C680.64,262.23 651.17,235.93 616.04,218.43 C601.52,211.20 590.20,207.04 573.84,202.93 C557.71,198.88 554.77,198.99 549.88,203.88 C546.56,207.21 546.00,208.39 546.00,212.13 C546.01,216.79 548.64,222.20 551.70,223.84 C552.69,224.36 558.67,226.03 565.00,227.53 C580.07,231.11 591.13,235.04 604.02,241.39 C643.99,261.09 675.91,293.38 696.05,334.50 C706.86,356.57 712.52,374.61 716.49,399.72 C718.91,415.09 720.30,418.35 725.33,420.54 C729.51,422.36 732.45,422.34 736.09,420.45 ZM 303.75 256.00 C304.62,256.00 311.36,249.73 318.72,242.06 C326.08,234.40 336.62,224.38 342.12,219.81 C373.27,193.97 414.14,174.21 452.43,166.48 C459.54,165.05 466.21,163.43 467.23,162.87 C470.51,161.12 472.99,155.84 473.00,150.63 C473.00,146.28 472.57,145.34 468.99,141.75 C464.98,137.75 464.98,137.74 459.03,138.42 C455.76,138.79 447.55,140.43 440.79,142.07 C389.83,154.42 345.47,179.27 308.95,215.91 C291.91,233.01 288.00,238.09 288.00,243.14 C288.00,248.87 290.44,252.84 295.32,255.06 C297.62,256.11 300.10,256.75 300.83,256.48 C301.56,256.22 302.88,256.00 303.75,256.00 ZM 731.12 252.12 C734.39,248.85 735.00,247.58 735.00,244.05 C735.00,238.69 734.11,237.08 726.11,228.00 C687.71,184.39 639.53,155.26 583.93,142.05 C566.39,137.88 561.13,137.37 557.13,139.43 C550.52,142.85 548.10,151.38 551.96,157.70 C554.84,162.43 557.78,163.90 567.62,165.51 C586.79,168.66 607.92,175.53 627.50,185.01 C655.94,198.77 674.63,212.39 699.73,237.65 L 717.96 256.00 L 722.60 256.00 C726.65,256.00 727.72,255.51 731.12,252.12 ZM 500.48 589.56 C489.96,579.00 480.61,571.97 458.73,558.15 C443.39,548.47 434.21,541.31 424.74,531.65 C404.76,511.24 391.42,485.22 386.78,457.58 C384.97,446.82 385.29,423.09 387.39,413.23 C393.00,386.77 404.20,365.89 422.99,346.86 C447.41,322.14 476.57,310.01 511.62,310.00 C546.87,309.99 575.74,322.19 599.59,347.16 C622.72,371.37 635.19,402.55 635.12,436.00 C635.05,469.67 624.32,498.79 602.15,525.40 C592.61,536.86 583.37,544.32 557.34,561.57 C538.21,574.25 532.11,578.90 522.34,588.27 L 510.50 599.62 L 500.48 589.56 ZM 525.39 565.09 C533.15,561.28 542.88,556.21 547.00,553.80 L 554.50 549.44 L 554.78 526.16 C554.94,513.36 554.65,497.26 554.15,490.39 C553.33,479.33 552.85,477.14 549.95,471.25 C544.71,460.61 535.10,451.68 525.00,448.07 C505.86,441.24 483.19,449.34 472.64,466.80 C466.31,477.27 466.00,479.62 466.00,516.54 L 466.00 549.72 L 471.96 553.39 C475.24,555.42 483.22,559.66 489.71,562.83 C506.42,571.01 508.33,571.86 509.89,571.94 C510.66,571.97 517.63,568.89 525.39,565.09 ZM 454.24 511.25 C454.62,483.72 454.81,481.06 456.83,475.57 C458.03,472.30 459.89,468.16 460.96,466.35 L 462.90 463.06 L 460.39 461.09 C456.26,457.85 448.05,455.55 440.50,455.54 C424.52,455.51 411.26,467.56 409.33,483.86 C408.81,488.23 409.16,489.70 412.00,495.19 C417.15,505.15 425.77,516.80 434.48,525.60 C441.71,532.90 451.44,540.91 453.16,540.98 C453.52,540.99 454.01,527.61 454.24,511.25 ZM 571.87 537.60 C579.02,532.34 596.04,514.29 601.19,506.50 C609.98,493.18 611.23,490.17 610.68,483.76 C609.74,472.76 603.52,463.86 593.25,458.80 C587.39,455.92 585.66,455.53 579.04,455.62 C573.78,455.70 569.84,456.40 566.00,457.94 C556.94,461.59 556.81,461.87 560.68,469.74 C562.51,473.46 564.46,478.92 565.00,481.89 C565.55,484.85 566.00,499.36 566.00,514.14 C566.00,528.91 566.28,541.00 566.62,541.00 C566.95,541.00 569.32,539.47 571.87,537.60 ZM 449.88 446.06 C454.45,443.73 459.45,438.26 461.50,433.34 C465.37,424.09 461.56,411.45 453.12,405.52 C449.18,402.75 448.15,402.50 440.50,402.50 C432.84,402.50 431.83,402.74 427.85,405.54 C422.24,409.48 419.38,413.83 417.99,420.56 C415.89,430.65 421.06,441.35 430.23,445.88 C435.83,448.66 444.64,448.73 449.88,446.06 ZM 589.51 446.14 C597.14,442.67 603.00,433.83 603.00,425.78 C603.00,411.89 593.46,402.00 580.07,402.00 C569.38,402.00 561.50,408.02 558.44,418.54 C555.09,430.09 560.55,441.83 571.50,446.61 C575.85,448.51 584.80,448.28 589.51,446.14 ZM 523.71 432.87 C534.95,427.52 541.26,417.64 541.83,404.50 C542.25,394.65 539.85,387.38 533.94,380.67 C518.72,363.38 491.10,367.63 481.18,388.78 C478.89,393.66 478.50,395.82 478.51,403.50 C478.51,411.02 478.90,413.24 480.88,417.00 C486.48,427.66 494.99,434.39 504.80,435.91 C511.76,436.98 516.77,436.18 523.71,432.87 Z" fill="rgb(253,254,253)"/>
</g>
</svg>