<svg xmlns="http://www.w3.org/2000/svg" viewBox="0 0 1000 1000" width="3264" height="3264">
<path fill-rule="evenodd" d="M 706.0,808.0 L 661.0,842.0 L 621.0,864.0 L 576.0,880.0 L 517.0,890.0 L 463.0,888.0 L 439.0,884.0 L 403.0,874.0 L 351.0,850.0 L 321.0,830.0 L 295.0,808.0 L 294.0,817.0 L 318.0,837.0 L 349.0,857.0 L 396.0,878.0 L 447.0,891.0 L 484.0,895.0 L 515.0,895.0 L 564.0,889.0 L 621.0,871.0 L 650.0,857.0 L 681.0,837.0 L 705.0,817.0 Z M 734.0,392.0 L 730.0,396.0 L 730.0,397.0 L 729.0,398.0 L 729.0,400.0 L 728.0,401.0 L 728.0,419.0 L 729.0,420.0 L 729.0,422.0 L 730.0,423.0 L 730.0,424.0 L 734.0,428.0 L 736.0,428.0 L 737.0,429.0 L 758.0,429.0 L 759.0,428.0 L 761.0,428.0 L 766.0,423.0 L 766.0,421.0 L 767.0,420.0 L 767.0,400.0 L 766.0,399.0 L 766.0,397.0 L 761.0,392.0 L 760.0,392.0 L 759.0,391.0 L 756.0,391.0 L 755.0,390.0 L 740.0,390.0 L 739.0,391.0 L 736.0,391.0 L 735.0,392.0 Z M 745.0,395.0 L 751.0,395.0 L 752.0,396.0 L 754.0,396.0 L 755.0,397.0 L 756.0,397.0 L 759.0,400.0 L 759.0,401.0 L 761.0,403.0 L 761.0,405.0 L 762.0,406.0 L 762.0,407.0 L 763.0,408.0 L 763.0,412.0 L 762.0,413.0 L 762.0,415.0 L 761.0,416.0 L 761.0,417.0 L 759.0,419.0 L 759.0,420.0 L 756.0,423.0 L 754.0,423.0 L 753.0,424.0 L 752.0,424.0 L 751.0,425.0 L 745.0,425.0 L 744.0,424.0 L 743.0,424.0 L 742.0,423.0 L 740.0,423.0 L 735.0,418.0 L 735.0,417.0 L 734.0,416.0 L 734.0,415.0 L 733.0,414.0 L 733.0,406.0 L 734.0,405.0 L 734.0,404.0 L 735.0,403.0 L 735.0,402.0 L 740.0,397.0 L 741.0,397.0 L 742.0,396.0 L 744.0,396.0 Z M 238.0,392.0 L 234.0,396.0 L 234.0,397.0 L 233.0,398.0 L 233.0,401.0 L 232.0,402.0 L 232.0,418.0 L 233.0,419.0 L 233.0,422.0 L 234.0,423.0 L 234.0,424.0 L 238.0,428.0 L 240.0,428.0 L 241.0,429.0 L 262.0,429.0 L 263.0,428.0 L 265.0,428.0 L 269.0,424.0 L 269.0,423.0 L 270.0,422.0 L 270.0,421.0 L 271.0,420.0 L 271.0,400.0 L 270.0,399.0 L 270.0,398.0 L 269.0,397.0 L 269.0,396.0 L 265.0,392.0 L 264.0,392.0 L 263.0,391.0 L 260.0,391.0 L 259.0,390.0 L 244.0,390.0 L 243.0,391.0 L 240.0,391.0 L 239.0,392.0 Z M 249.0,395.0 L 255.0,395.0 L 256.0,396.0 L 258.0,396.0 L 265.0,403.0 L 265.0,404.0 L 266.0,405.0 L 266.0,415.0 L 265.0,416.0 L 265.0,417.0 L 259.0,423.0 L 258.0,423.0 L 257.0,424.0 L 256.0,424.0 L 255.0,425.0 L 249.0,425.0 L 248.0,424.0 L 247.0,424.0 L 246.0,423.0 L 244.0,423.0 L 239.0,418.0 L 239.0,417.0 L 238.0,416.0 L 238.0,415.0 L 237.0,414.0 L 237.0,406.0 L 238.0,405.0 L 238.0,404.0 L 239.0,403.0 L 239.0,402.0 L 244.0,397.0 L 245.0,397.0 L 246.0,396.0 L 248.0,396.0 Z M 493.0,254.0 L 467.0,258.0 L 440.0,268.0 L 417.0,282.0 L 400.0,297.0 L 381.0,322.0 L 368.0,350.0 L 361.0,382.0 L 361.0,408.0 L 365.0,431.0 L 374.0,456.0 L 385.0,476.0 L 398.0,493.0 L 424.0,517.0 L 464.0,542.0 L 500.0,573.0 L 523.0,551.0 L 586.0,508.0 L 610.0,482.0 L 620.0,467.0 L 632.0,439.0 L 638.0,412.0 L 639.0,387.0 L 632.0,351.0 L 620.0,324.0 L 604.0,302.0 L 588.0,286.0 L 571.0,274.0 L 546.0,262.0 L 523.0,256.0 Z M 486.0,549.0 L 487.0,548.0 L 488.0,548.0 L 489.0,549.0 L 510.0,549.0 L 511.0,548.0 L 512.0,548.0 L 513.0,549.0 L 513.0,550.0 L 512.0,551.0 L 511.0,551.0 L 500.0,562.0 L 499.0,562.0 L 490.0,553.0 L 489.0,553.0 L 486.0,550.0 Z M 442.0,515.0 L 444.0,517.0 L 444.0,518.0 L 442.0,520.0 L 441.0,519.0 L 440.0,519.0 L 439.0,518.0 L 439.0,517.0 L 440.0,516.0 L 441.0,516.0 Z M 587.0,417.0 L 588.0,418.0 L 590.0,418.0 L 595.0,421.0 L 597.0,421.0 L 600.0,424.0 L 601.0,424.0 L 607.0,430.0 L 607.0,431.0 L 612.0,437.0 L 612.0,439.0 L 613.0,440.0 L 613.0,442.0 L 614.0,443.0 L 614.0,458.0 L 613.0,459.0 L 612.0,462.0 L 608.0,467.0 L 608.0,469.0 L 606.0,471.0 L 606.0,472.0 L 604.0,474.0 L 604.0,475.0 L 602.0,477.0 L 602.0,478.0 L 598.0,482.0 L 598.0,483.0 L 580.0,501.0 L 579.0,501.0 L 573.0,507.0 L 572.0,507.0 L 569.0,510.0 L 568.0,510.0 L 566.0,512.0 L 565.0,512.0 L 563.0,510.0 L 563.0,508.0 L 562.0,507.0 L 562.0,446.0 L 561.0,445.0 L 561.0,443.0 L 559.0,440.0 L 558.0,435.0 L 556.0,433.0 L 554.0,428.0 L 552.0,426.0 L 552.0,423.0 L 554.0,421.0 L 556.0,421.0 L 558.0,419.0 L 560.0,419.0 L 561.0,418.0 L 563.0,418.0 L 564.0,417.0 L 569.0,417.0 L 570.0,416.0 L 581.0,416.0 L 582.0,417.0 Z M 412.0,417.0 L 417.0,417.0 L 418.0,416.0 L 429.0,416.0 L 430.0,417.0 L 435.0,417.0 L 436.0,418.0 L 441.0,419.0 L 444.0,421.0 L 446.0,421.0 L 448.0,423.0 L 448.0,426.0 L 445.0,429.0 L 445.0,431.0 L 443.0,433.0 L 443.0,434.0 L 441.0,437.0 L 441.0,439.0 L 439.0,442.0 L 439.0,445.0 L 438.0,446.0 L 438.0,449.0 L 437.0,450.0 L 437.0,510.0 L 435.0,512.0 L 433.0,512.0 L 431.0,510.0 L 430.0,510.0 L 428.0,508.0 L 427.0,508.0 L 420.0,501.0 L 419.0,501.0 L 401.0,483.0 L 401.0,482.0 L 399.0,480.0 L 399.0,479.0 L 396.0,476.0 L 396.0,475.0 L 392.0,470.0 L 391.0,467.0 L 389.0,465.0 L 389.0,464.0 L 386.0,460.0 L 386.0,458.0 L 385.0,457.0 L 385.0,445.0 L 386.0,444.0 L 386.0,441.0 L 387.0,440.0 L 387.0,438.0 L 390.0,434.0 L 390.0,433.0 L 394.0,429.0 L 394.0,428.0 L 401.0,422.0 L 402.0,422.0 L 409.0,418.0 L 411.0,418.0 Z M 495.0,406.0 L 514.0,407.0 L 523.0,411.0 L 525.0,411.0 L 531.0,415.0 L 544.0,429.0 L 544.0,431.0 L 546.0,433.0 L 550.0,441.0 L 550.0,447.0 L 551.0,448.0 L 551.0,464.0 L 552.0,465.0 L 552.0,480.0 L 551.0,481.0 L 552.0,484.0 L 552.0,519.0 L 547.0,525.0 L 537.0,530.0 L 535.0,532.0 L 520.0,539.0 L 505.0,544.0 L 494.0,544.0 L 485.0,540.0 L 479.0,539.0 L 475.0,536.0 L 470.0,535.0 L 454.0,526.0 L 449.0,522.0 L 448.0,519.0 L 448.0,455.0 L 449.0,454.0 L 449.0,445.0 L 453.0,436.0 L 453.0,434.0 L 455.0,432.0 L 457.0,427.0 L 469.0,415.0 L 478.0,410.0 L 483.0,409.0 L 486.0,407.0 L 494.0,407.0 Z M 570.0,358.0 L 582.0,358.0 L 583.0,359.0 L 584.0,359.0 L 585.0,360.0 L 587.0,360.0 L 589.0,362.0 L 590.0,362.0 L 598.0,370.0 L 598.0,371.0 L 600.0,373.0 L 600.0,375.0 L 601.0,376.0 L 601.0,377.0 L 602.0,378.0 L 602.0,391.0 L 601.0,392.0 L 601.0,393.0 L 600.0,394.0 L 600.0,396.0 L 598.0,398.0 L 598.0,399.0 L 592.0,405.0 L 591.0,405.0 L 588.0,408.0 L 587.0,408.0 L 586.0,409.0 L 582.0,409.0 L 581.0,410.0 L 570.0,410.0 L 569.0,409.0 L 566.0,409.0 L 565.0,408.0 L 564.0,408.0 L 562.0,406.0 L 561.0,406.0 L 555.0,400.0 L 555.0,399.0 L 552.0,396.0 L 552.0,394.0 L 551.0,393.0 L 551.0,389.0 L 550.0,388.0 L 550.0,380.0 L 551.0,379.0 L 551.0,375.0 L 552.0,374.0 L 552.0,373.0 L 554.0,371.0 L 554.0,370.0 L 562.0,362.0 L 563.0,362.0 L 565.0,360.0 L 567.0,360.0 L 568.0,359.0 L 569.0,359.0 Z M 417.0,358.0 L 430.0,358.0 L 431.0,359.0 L 432.0,359.0 L 433.0,360.0 L 434.0,360.0 L 435.0,361.0 L 436.0,361.0 L 437.0,362.0 L 438.0,362.0 L 442.0,366.0 L 442.0,367.0 L 443.0,367.0 L 444.0,368.0 L 444.0,369.0 L 447.0,372.0 L 447.0,373.0 L 448.0,374.0 L 448.0,376.0 L 449.0,377.0 L 449.0,391.0 L 448.0,392.0 L 448.0,394.0 L 447.0,395.0 L 447.0,396.0 L 445.0,398.0 L 445.0,399.0 L 438.0,406.0 L 437.0,406.0 L 435.0,408.0 L 434.0,408.0 L 433.0,409.0 L 430.0,409.0 L 429.0,410.0 L 418.0,410.0 L 417.0,409.0 L 413.0,409.0 L 411.0,407.0 L 410.0,407.0 L 400.0,397.0 L 400.0,396.0 L 399.0,395.0 L 399.0,393.0 L 398.0,392.0 L 398.0,390.0 L 397.0,389.0 L 397.0,380.0 L 398.0,379.0 L 398.0,377.0 L 399.0,376.0 L 399.0,374.0 L 400.0,373.0 L 400.0,372.0 L 401.0,371.0 L 401.0,370.0 L 409.0,362.0 L 410.0,362.0 L 411.0,361.0 L 412.0,361.0 L 413.0,360.0 L 414.0,360.0 L 415.0,359.0 L 416.0,359.0 Z M 490.0,324.0 L 495.0,324.0 L 496.0,323.0 L 503.0,323.0 L 504.0,324.0 L 510.0,324.0 L 512.0,326.0 L 514.0,326.0 L 516.0,328.0 L 518.0,328.0 L 520.0,330.0 L 521.0,330.0 L 530.0,339.0 L 530.0,340.0 L 532.0,342.0 L 532.0,343.0 L 535.0,348.0 L 535.0,350.0 L 536.0,351.0 L 536.0,369.0 L 535.0,370.0 L 535.0,372.0 L 534.0,373.0 L 534.0,374.0 L 533.0,375.0 L 532.0,378.0 L 530.0,380.0 L 529.0,383.0 L 523.0,389.0 L 522.0,389.0 L 519.0,392.0 L 518.0,392.0 L 513.0,395.0 L 511.0,395.0 L 510.0,396.0 L 508.0,396.0 L 507.0,397.0 L 492.0,397.0 L 491.0,396.0 L 489.0,396.0 L 488.0,395.0 L 486.0,395.0 L 485.0,394.0 L 484.0,394.0 L 483.0,393.0 L 480.0,392.0 L 477.0,389.0 L 476.0,389.0 L 472.0,385.0 L 472.0,384.0 L 469.0,381.0 L 469.0,380.0 L 467.0,378.0 L 467.0,377.0 L 465.0,374.0 L 465.0,372.0 L 464.0,371.0 L 464.0,369.0 L 463.0,368.0 L 463.0,352.0 L 464.0,351.0 L 464.0,349.0 L 465.0,348.0 L 465.0,346.0 L 467.0,344.0 L 468.0,341.0 L 470.0,339.0 L 470.0,338.0 L 478.0,330.0 L 479.0,330.0 L 481.0,328.0 L 483.0,328.0 L 485.0,326.0 L 487.0,326.0 Z M 383.0,332.0 L 402.0,306.0 L 421.0,288.0 L 445.0,273.0 L 471.0,263.0 L 494.0,259.0 L 513.0,260.0 L 541.0,267.0 L 582.0,291.0 L 605.0,315.0 L 622.0,344.0 L 634.0,388.0 L 632.0,413.0 L 624.0,441.0 L 620.0,446.0 L 615.0,428.0 L 606.0,418.0 L 596.0,413.0 L 607.0,395.0 L 607.0,372.0 L 597.0,357.0 L 587.0,353.0 L 564.0,353.0 L 549.0,363.0 L 545.0,372.0 L 545.0,395.0 L 547.0,402.0 L 556.0,412.0 L 545.0,418.0 L 536.0,409.0 L 519.0,401.0 L 533.0,390.0 L 540.0,378.0 L 541.0,347.0 L 537.0,336.0 L 530.0,327.0 L 516.0,319.0 L 489.0,318.0 L 469.0,327.0 L 458.0,347.0 L 459.0,378.0 L 465.0,389.0 L 481.0,401.0 L 464.0,409.0 L 454.0,418.0 L 445.0,414.0 L 444.0,411.0 L 454.0,396.0 L 452.0,366.0 L 444.0,357.0 L 435.0,353.0 L 408.0,354.0 L 398.0,361.0 L 392.0,374.0 L 392.0,395.0 L 403.0,413.0 L 393.0,418.0 L 384.0,428.0 L 378.0,447.0 L 369.0,423.0 L 365.0,399.0 L 369.0,367.0 Z M 738.0,189.0 L 736.0,190.0 L 733.0,194.0 L 733.0,216.0 L 757.0,252.0 L 757.0,254.0 L 759.0,256.0 L 771.0,281.0 L 772.0,286.0 L 775.0,291.0 L 775.0,295.0 L 781.0,309.0 L 783.0,320.0 L 785.0,324.0 L 787.0,338.0 L 789.0,342.0 L 789.0,350.0 L 790.0,351.0 L 791.0,361.0 L 792.0,363.0 L 797.0,367.0 L 817.0,367.0 L 821.0,365.0 L 823.0,362.0 L 823.0,336.0 L 822.0,335.0 L 822.0,327.0 L 821.0,326.0 L 819.0,313.0 L 816.0,304.0 L 815.0,296.0 L 812.0,289.0 L 812.0,286.0 L 807.0,271.0 L 798.0,251.0 L 798.0,249.0 L 786.0,226.0 L 784.0,224.0 L 784.0,222.0 L 778.0,214.0 L 772.0,203.0 L 765.0,194.0 L 759.0,189.0 Z M 747.0,193.0 L 751.0,193.0 L 754.0,195.0 L 756.0,195.0 L 765.0,206.0 L 773.0,218.0 L 773.0,220.0 L 778.0,226.0 L 780.0,231.0 L 783.0,235.0 L 783.0,237.0 L 788.0,244.0 L 789.0,248.0 L 792.0,252.0 L 792.0,254.0 L 796.0,261.0 L 797.0,266.0 L 802.0,276.0 L 802.0,278.0 L 808.0,294.0 L 808.0,298.0 L 811.0,304.0 L 812.0,313.0 L 814.0,317.0 L 816.0,330.0 L 817.0,331.0 L 817.0,335.0 L 818.0,336.0 L 818.0,345.0 L 819.0,346.0 L 819.0,353.0 L 818.0,354.0 L 818.0,357.0 L 810.0,363.0 L 805.0,363.0 L 800.0,360.0 L 796.0,355.0 L 796.0,353.0 L 795.0,352.0 L 795.0,343.0 L 794.0,342.0 L 793.0,333.0 L 791.0,328.0 L 791.0,322.0 L 787.0,311.0 L 787.0,307.0 L 785.0,303.0 L 785.0,300.0 L 783.0,297.0 L 779.0,283.0 L 777.0,280.0 L 777.0,277.0 L 773.0,270.0 L 773.0,268.0 L 771.0,266.0 L 771.0,264.0 L 765.0,252.0 L 763.0,250.0 L 763.0,248.0 L 761.0,246.0 L 761.0,244.0 L 737.0,208.0 L 737.0,202.0 L 738.0,200.0 L 743.0,195.0 Z M 262.0,189.0 L 241.0,189.0 L 239.0,190.0 L 231.0,199.0 L 223.0,211.0 L 205.0,243.0 L 205.0,245.0 L 197.0,261.0 L 197.0,264.0 L 193.0,271.0 L 187.0,289.0 L 186.0,296.0 L 183.0,304.0 L 182.0,313.0 L 180.0,318.0 L 180.0,322.0 L 178.0,327.0 L 177.0,341.0 L 176.0,342.0 L 176.0,360.0 L 177.0,363.0 L 182.0,367.0 L 202.0,367.0 L 204.0,366.0 L 209.0,360.0 L 210.0,347.0 L 214.0,333.0 L 214.0,328.0 L 216.0,324.0 L 218.0,313.0 L 222.0,301.0 L 224.0,298.0 L 224.0,294.0 L 228.0,287.0 L 228.0,284.0 L 244.0,251.0 L 248.0,246.0 L 250.0,241.0 L 256.0,233.0 L 257.0,230.0 L 267.0,217.0 L 267.0,214.0 L 268.0,213.0 L 268.0,198.0 L 266.0,192.0 Z M 254.0,193.0 L 256.0,195.0 L 258.0,195.0 L 262.0,199.0 L 262.0,201.0 L 263.0,202.0 L 263.0,208.0 L 262.0,209.0 L 262.0,211.0 L 256.0,220.0 L 252.0,224.0 L 248.0,232.0 L 244.0,237.0 L 242.0,242.0 L 238.0,247.0 L 233.0,257.0 L 233.0,259.0 L 230.0,263.0 L 230.0,265.0 L 226.0,272.0 L 226.0,274.0 L 223.0,278.0 L 223.0,281.0 L 219.0,289.0 L 219.0,292.0 L 213.0,308.0 L 212.0,316.0 L 209.0,323.0 L 209.0,328.0 L 208.0,329.0 L 207.0,338.0 L 205.0,343.0 L 205.0,351.0 L 204.0,352.0 L 204.0,355.0 L 202.0,358.0 L 195.0,363.0 L 190.0,363.0 L 185.0,360.0 L 181.0,355.0 L 181.0,343.0 L 182.0,342.0 L 183.0,332.0 L 185.0,327.0 L 185.0,322.0 L 187.0,318.0 L 189.0,305.0 L 191.0,302.0 L 191.0,298.0 L 193.0,294.0 L 193.0,291.0 L 195.0,288.0 L 196.0,282.0 L 199.0,277.0 L 199.0,274.0 L 201.0,272.0 L 201.0,270.0 L 203.0,267.0 L 203.0,265.0 L 205.0,262.0 L 207.0,255.0 L 209.0,253.0 L 209.0,251.0 L 213.0,245.0 L 213.0,243.0 L 215.0,241.0 L 222.0,227.0 L 236.0,205.0 L 245.0,195.0 L 249.0,193.0 Z M 449.0,192.0 L 333.0,269.0 L 301.0,335.0 L 294.0,416.0 L 324.0,505.0 L 439.0,658.0 L 489.0,800.0 L 390.0,598.0 L 184.0,446.0 L 168.0,453.0 L 171.0,581.0 L 219.0,689.0 L 283.0,751.0 L 421.0,791.0 L 454.0,831.0 L 344.0,818.0 L 255.0,769.0 L 195.0,691.0 L 164.0,578.0 L 170.0,642.0 L 213.0,734.0 L 279.0,796.0 L 387.0,840.0 L 490.0,844.0 L 398.0,707.0 L 262.0,603.0 L 413.0,766.0 L 316.0,749.0 L 232.0,684.0 L 181.0,577.0 L 174.0,452.0 L 386.0,605.0 L 502.0,832.0 L 606.0,612.0 L 823.0,450.0 L 818.0,576.0 L 765.0,686.0 L 687.0,747.0 L 585.0,767.0 L 736.0,603.0 L 597.0,711.0 L 511.0,843.0 L 613.0,840.0 L 726.0,792.0 L 801.0,710.0 L 835.0,578.0 L 807.0,684.0 L 744.0,769.0 L 652.0,819.0 L 544.0,830.0 L 578.0,791.0 L 699.0,761.0 L 776.0,694.0 L 828.0,580.0 L 830.0,447.0 L 612.0,593.0 L 500.0,819.0 L 559.0,659.0 L 691.0,474.0 L 705.0,373.0 L 680.0,290.0 L 623.0,225.0 L 547.0,191.0 Z M 708.0,746.0 L 683.0,761.0 L 647.0,775.0 L 615.0,782.0 L 576.0,785.0 L 563.0,791.0 L 552.0,802.0 L 543.0,815.0 L 540.0,822.0 L 540.0,836.0 L 587.0,836.0 L 587.0,839.0 L 552.0,843.0 L 539.0,843.0 L 522.0,840.0 L 523.0,836.0 L 569.0,760.0 L 584.0,738.0 L 608.0,710.0 L 626.0,693.0 L 628.0,694.0 L 601.0,724.0 L 581.0,756.0 L 582.0,773.0 L 620.0,772.0 L 644.0,768.0 L 678.0,758.0 L 705.0,745.0 Z M 283.0,741.0 L 286.0,740.0 L 291.0,744.0 L 320.0,758.0 L 354.0,768.0 L 379.0,772.0 L 417.0,773.0 L 418.0,758.0 L 399.0,726.0 L 369.0,693.0 L 371.0,692.0 L 396.0,716.0 L 416.0,740.0 L 480.0,838.0 L 476.0,841.0 L 461.0,843.0 L 444.0,843.0 L 411.0,839.0 L 411.0,836.0 L 458.0,836.0 L 458.0,820.0 L 450.0,806.0 L 437.0,792.0 L 422.0,785.0 L 377.0,781.0 L 339.0,771.0 L 304.0,755.0 Z M 516.0,192.0 L 547.0,197.0 L 590.0,213.0 L 623.0,234.0 L 651.0,261.0 L 676.0,297.0 L 691.0,332.0 L 701.0,381.0 L 701.0,410.0 L 691.0,456.0 L 677.0,488.0 L 650.0,529.0 L 582.0,609.0 L 544.0,673.0 L 526.0,719.0 L 503.0,799.0 L 499.0,802.0 L 489.0,779.0 L 469.0,708.0 L 443.0,650.0 L 409.0,599.0 L 347.0,526.0 L 314.0,471.0 L 300.0,422.0 L 298.0,386.0 L 308.0,333.0 L 322.0,300.0 L 348.0,262.0 L 368.0,242.0 L 396.0,221.0 L 434.0,203.0 L 476.0,193.0 Z M 527.0,130.0 L 523.0,134.0 L 523.0,156.0 L 526.0,160.0 L 532.0,163.0 L 544.0,164.0 L 577.0,174.0 L 607.0,188.0 L 632.0,204.0 L 662.0,230.0 L 690.0,264.0 L 706.0,291.0 L 722.0,332.0 L 727.0,360.0 L 733.0,365.0 L 755.0,364.0 L 759.0,359.0 L 759.0,336.0 L 748.0,293.0 L 738.0,270.0 L 724.0,245.0 L 697.0,210.0 L 665.0,180.0 L 641.0,163.0 L 617.0,150.0 L 599.0,142.0 L 574.0,134.0 L 550.0,129.0 Z M 535.0,134.0 L 542.0,133.0 L 569.0,139.0 L 593.0,147.0 L 619.0,159.0 L 654.0,181.0 L 671.0,195.0 L 694.0,218.0 L 723.0,257.0 L 740.0,291.0 L 745.0,308.0 L 747.0,310.0 L 755.0,343.0 L 755.0,352.0 L 750.0,359.0 L 738.0,360.0 L 732.0,354.0 L 727.0,326.0 L 713.0,289.0 L 691.0,252.0 L 668.0,225.0 L 638.0,199.0 L 613.0,183.0 L 577.0,167.0 L 549.0,159.0 L 540.0,159.0 L 532.0,155.0 L 529.0,152.0 L 527.0,145.0 L 528.0,141.0 Z M 474.0,129.0 L 452.0,129.0 L 428.0,134.0 L 403.0,142.0 L 356.0,166.0 L 321.0,193.0 L 301.0,213.0 L 275.0,247.0 L 261.0,273.0 L 252.0,294.0 L 241.0,332.0 L 241.0,361.0 L 246.0,365.0 L 267.0,365.0 L 272.0,361.0 L 281.0,322.0 L 298.0,284.0 L 319.0,252.0 L 345.0,224.0 L 369.0,204.0 L 410.0,180.0 L 443.0,168.0 L 476.0,161.0 L 480.0,156.0 L 480.0,135.0 Z M 470.0,135.0 L 475.0,141.0 L 476.0,147.0 L 474.0,152.0 L 469.0,157.0 L 437.0,163.0 L 435.0,165.0 L 425.0,167.0 L 407.0,174.0 L 385.0,185.0 L 363.0,199.0 L 333.0,225.0 L 312.0,249.0 L 288.0,288.0 L 272.0,331.0 L 268.0,354.0 L 261.0,360.0 L 250.0,359.0 L 245.0,353.0 L 245.0,342.0 L 256.0,302.0 L 266.0,278.0 L 280.0,253.0 L 306.0,219.0 L 326.0,199.0 L 345.0,183.0 L 383.0,159.0 L 409.0,147.0 L 433.0,139.0 L 439.0,139.0 L 460.0,133.0 L 466.0,133.0 Z M 524.0,70.0 L 523.0,72.0 L 523.0,93.0 L 528.0,98.0 L 544.0,100.0 L 545.0,101.0 L 552.0,101.0 L 574.0,107.0 L 578.0,107.0 L 618.0,122.0 L 651.0,140.0 L 658.0,146.0 L 667.0,151.0 L 702.0,181.0 L 723.0,181.0 L 728.0,177.0 L 729.0,174.0 L 729.0,157.0 L 724.0,149.0 L 708.0,134.0 L 682.0,114.0 L 651.0,96.0 L 609.0,78.0 L 605.0,78.0 L 599.0,75.0 L 591.0,74.0 L 583.0,71.0 L 572.0,70.0 L 567.0,68.0 L 561.0,68.0 L 555.0,66.0 L 529.0,66.0 Z M 528.0,78.0 L 533.0,72.0 L 537.0,70.0 L 557.0,72.0 L 573.0,76.0 L 578.0,76.0 L 590.0,80.0 L 594.0,80.0 L 597.0,82.0 L 606.0,84.0 L 609.0,86.0 L 631.0,94.0 L 660.0,109.0 L 671.0,117.0 L 673.0,117.0 L 695.0,133.0 L 723.0,159.0 L 725.0,165.0 L 723.0,171.0 L 719.0,175.0 L 715.0,177.0 L 709.0,177.0 L 673.0,146.0 L 670.0,145.0 L 666.0,141.0 L 664.0,141.0 L 657.0,135.0 L 655.0,135.0 L 636.0,123.0 L 634.0,123.0 L 632.0,121.0 L 630.0,121.0 L 628.0,119.0 L 626.0,119.0 L 610.0,111.0 L 607.0,111.0 L 604.0,109.0 L 590.0,105.0 L 587.0,103.0 L 582.0,103.0 L 578.0,101.0 L 575.0,101.0 L 571.0,99.0 L 566.0,99.0 L 562.0,97.0 L 540.0,95.0 L 534.0,93.0 L 528.0,86.0 Z M 480.0,71.0 L 475.0,66.0 L 448.0,66.0 L 441.0,68.0 L 435.0,68.0 L 430.0,70.0 L 419.0,71.0 L 411.0,74.0 L 400.0,76.0 L 397.0,78.0 L 393.0,78.0 L 385.0,82.0 L 382.0,82.0 L 380.0,84.0 L 372.0,86.0 L 343.0,100.0 L 321.0,114.0 L 319.0,114.0 L 315.0,118.0 L 308.0,122.0 L 285.0,141.0 L 275.0,151.0 L 272.0,156.0 L 272.0,174.0 L 273.0,177.0 L 278.0,181.0 L 298.0,181.0 L 301.0,180.0 L 321.0,161.0 L 325.0,159.0 L 334.0,151.0 L 357.0,136.0 L 384.0,122.0 L 391.0,120.0 L 398.0,116.0 L 425.0,107.0 L 429.0,107.0 L 451.0,101.0 L 473.0,99.0 L 477.0,97.0 L 480.0,93.0 Z M 475.0,77.0 L 476.0,84.0 L 474.0,89.0 L 470.0,93.0 L 464.0,95.0 L 455.0,95.0 L 454.0,96.0 L 441.0,97.0 L 425.0,101.0 L 421.0,103.0 L 416.0,103.0 L 407.0,107.0 L 403.0,107.0 L 395.0,111.0 L 392.0,111.0 L 381.0,117.0 L 378.0,117.0 L 376.0,119.0 L 374.0,119.0 L 372.0,121.0 L 364.0,124.0 L 353.0,131.0 L 351.0,131.0 L 324.0,149.0 L 295.0,175.0 L 291.0,177.0 L 286.0,177.0 L 282.0,175.0 L 277.0,169.0 L 277.0,162.0 L 280.0,157.0 L 290.0,147.0 L 309.0,131.0 L 340.0,110.0 L 365.0,97.0 L 367.0,97.0 L 371.0,94.0 L 409.0,80.0 L 417.0,79.0 L 424.0,76.0 L 440.0,74.0 L 445.0,72.0 L 453.0,72.0 L 459.0,70.0 L 466.0,70.0 L 470.0,72.0 Z" fill="rgb(254,254,254)"/>
<path fill-rule="evenodd" d="M 824.0,611.0 L 821.0,615.0 L 819.0,625.0 L 813.0,635.0 L 813.0,639.0 L 809.0,644.0 L 805.0,656.0 L 797.0,668.0 L 794.0,676.0 L 769.0,709.0 L 739.0,739.0 L 704.0,763.0 L 667.0,780.0 L 642.0,787.0 L 636.0,787.0 L 626.0,791.0 L 608.0,791.0 L 603.0,793.0 L 579.0,795.0 L 564.0,806.0 L 557.0,814.0 L 550.0,827.0 L 589.0,828.0 L 603.0,824.0 L 615.0,824.0 L 625.0,820.0 L 631.0,820.0 L 654.0,814.0 L 686.0,802.0 L 702.0,794.0 L 738.0,769.0 L 764.0,743.0 L 776.0,728.0 L 800.0,689.0 L 816.0,649.0 L 820.0,629.0 L 824.0,621.0 Z M 173.0,603.0 L 176.0,624.0 L 183.0,650.0 L 203.0,697.0 L 229.0,736.0 L 249.0,758.0 L 265.0,772.0 L 301.0,796.0 L 338.0,812.0 L 368.0,820.0 L 375.0,820.0 L 384.0,824.0 L 396.0,824.0 L 411.0,828.0 L 449.0,827.0 L 438.0,809.0 L 430.0,801.0 L 420.0,795.0 L 394.0,793.0 L 390.0,791.0 L 376.0,791.0 L 341.0,783.0 L 300.0,766.0 L 260.0,739.0 L 234.0,714.0 L 204.0,674.0 L 190.0,648.0 Z M 524.0,197.0 L 476.0,197.0 L 448.0,203.0 L 412.0,217.0 L 378.0,239.0 L 351.0,265.0 L 327.0,300.0 L 313.0,331.0 L 303.0,379.0 L 305.0,427.0 L 324.0,482.0 L 347.0,519.0 L 407.0,590.0 L 442.0,640.0 L 468.0,693.0 L 499.0,794.0 L 526.0,706.0 L 550.0,652.0 L 580.0,605.0 L 661.0,507.0 L 687.0,456.0 L 697.0,408.0 L 697.0,380.0 L 687.0,332.0 L 673.0,300.0 L 649.0,265.0 L 621.0,238.0 L 589.0,217.0 L 560.0,205.0 Z M 489.0,250.0 L 512.0,250.0 L 548.0,258.0 L 576.0,272.0 L 604.0,296.0 L 624.0,323.0 L 638.0,356.0 L 643.0,383.0 L 642.0,414.0 L 638.0,434.0 L 630.0,456.0 L 615.0,482.0 L 586.0,513.0 L 527.0,553.0 L 501.0,578.0 L 498.0,578.0 L 471.0,552.0 L 425.0,523.0 L 396.0,497.0 L 371.0,460.0 L 361.0,433.0 L 357.0,412.0 L 357.0,378.0 L 361.0,357.0 L 375.0,324.0 L 387.0,306.0 L 408.0,284.0 L 429.0,269.0 L 464.0,254.0 Z" fill="rgb(6,58,28)"/>
<path fill-rule="evenodd" d="M 822.0,457.0 L 821.0,456.0 L 801.0,476.0 L 771.0,497.0 L 721.0,523.0 L 673.0,553.0 L 643.0,578.0 L 620.0,602.0 L 621.0,605.0 L 619.0,609.0 L 614.0,612.0 L 616.0,613.0 L 621.0,610.0 L 620.0,615.0 L 635.0,613.0 L 637.0,611.0 L 639.0,615.0 L 644.0,618.0 L 649.0,618.0 L 653.0,624.0 L 658.0,622.0 L 662.0,627.0 L 667.0,627.0 L 677.0,639.0 L 668.0,639.0 L 665.0,645.0 L 661.0,641.0 L 665.0,647.0 L 668.0,647.0 L 708.0,620.0 L 746.0,590.0 L 748.0,595.0 L 732.0,617.0 L 702.0,649.0 L 706.0,652.0 L 711.0,646.0 L 716.0,648.0 L 718.0,643.0 L 731.0,643.0 L 740.0,639.0 L 753.0,641.0 L 756.0,647.0 L 762.0,647.0 L 762.0,643.0 L 766.0,638.0 L 772.0,643.0 L 780.0,644.0 L 783.0,635.0 L 780.0,636.0 L 779.0,634.0 L 783.0,631.0 L 788.0,634.0 L 798.0,624.0 L 814.0,576.0 L 822.0,523.0 Z M 789.0,624.0 L 790.0,625.0 L 790.0,629.0 L 788.0,631.0 L 786.0,629.0 L 787.0,628.0 L 787.0,626.0 Z M 177.0,457.0 L 176.0,516.0 L 183.0,568.0 L 199.0,620.0 L 204.0,629.0 L 203.0,627.0 L 207.0,621.0 L 209.0,623.0 L 208.0,627.0 L 211.0,629.0 L 209.0,632.0 L 215.0,637.0 L 221.0,633.0 L 223.0,621.0 L 228.0,627.0 L 235.0,626.0 L 243.0,628.0 L 245.0,626.0 L 256.0,626.0 L 262.0,630.0 L 266.0,629.0 L 268.0,632.0 L 264.0,637.0 L 267.0,639.0 L 272.0,633.0 L 278.0,631.0 L 254.0,601.0 L 250.0,594.0 L 253.0,590.0 L 289.0,619.0 L 331.0,647.0 L 332.0,645.0 L 329.0,642.0 L 332.0,641.0 L 332.0,638.0 L 336.0,636.0 L 339.0,631.0 L 345.0,628.0 L 349.0,622.0 L 353.0,625.0 L 359.0,625.0 L 359.0,620.0 L 363.0,616.0 L 362.0,615.0 L 364.0,613.0 L 367.0,614.0 L 367.0,610.0 L 360.0,606.0 L 363.0,601.0 L 367.0,602.0 L 374.0,598.0 L 375.0,599.0 L 371.0,602.0 L 379.0,603.0 L 350.0,573.0 L 327.0,554.0 L 294.0,532.0 L 235.0,501.0 L 211.0,486.0 L 178.0,456.0 Z M 183.0,466.0 L 184.0,465.0 L 185.0,466.0 L 186.0,466.0 L 190.0,470.0 L 190.0,471.0 L 188.0,473.0 L 183.0,468.0 Z M 531.0,80.0 L 531.0,84.0 L 533.0,86.0 L 533.0,87.0 L 535.0,89.0 L 536.0,89.0 L 537.0,90.0 L 540.0,90.0 L 541.0,91.0 L 548.0,91.0 L 549.0,92.0 L 554.0,92.0 L 555.0,93.0 L 564.0,93.0 L 565.0,94.0 L 566.0,94.0 L 567.0,95.0 L 571.0,95.0 L 572.0,96.0 L 574.0,96.0 L 575.0,97.0 L 578.0,97.0 L 579.0,98.0 L 582.0,98.0 L 583.0,99.0 L 588.0,99.0 L 588.0,93.0 L 590.0,91.0 L 591.0,91.0 L 592.0,92.0 L 593.0,92.0 L 593.0,91.0 L 592.0,90.0 L 592.0,89.0 L 593.0,88.0 L 596.0,88.0 L 596.0,87.0 L 595.0,86.0 L 594.0,86.0 L 593.0,85.0 L 593.0,84.0 L 591.0,84.0 L 590.0,83.0 L 587.0,83.0 L 586.0,82.0 L 582.0,82.0 L 581.0,81.0 L 579.0,81.0 L 578.0,80.0 L 574.0,80.0 L 573.0,79.0 L 568.0,79.0 L 567.0,78.0 L 562.0,78.0 L 561.0,77.0 L 559.0,77.0 L 558.0,76.0 L 549.0,76.0 L 548.0,75.0 L 544.0,75.0 L 543.0,74.0 L 537.0,74.0 Z M 579.0,86.0 L 581.0,86.0 L 583.0,88.0 L 583.0,90.0 L 581.0,92.0 L 579.0,92.0 L 576.0,89.0 Z M 472.0,82.0 L 471.0,82.0 L 468.0,85.0 L 468.0,86.0 L 469.0,87.0 L 467.0,89.0 L 465.0,87.0 L 465.0,85.0 L 464.0,84.0 L 464.0,83.0 L 465.0,82.0 L 466.0,82.0 L 466.0,80.0 L 465.0,79.0 L 467.0,77.0 L 468.0,77.0 L 469.0,78.0 L 470.0,77.0 L 469.0,76.0 L 468.0,76.0 L 466.0,74.0 L 459.0,74.0 L 458.0,75.0 L 454.0,75.0 L 453.0,76.0 L 443.0,76.0 L 440.0,78.0 L 435.0,78.0 L 434.0,79.0 L 429.0,79.0 L 427.0,81.0 L 426.0,81.0 L 425.0,80.0 L 423.0,80.0 L 422.0,81.0 L 421.0,81.0 L 421.0,82.0 L 422.0,82.0 L 423.0,81.0 L 427.0,81.0 L 428.0,82.0 L 428.0,83.0 L 430.0,85.0 L 432.0,85.0 L 433.0,84.0 L 436.0,86.0 L 441.0,86.0 L 443.0,88.0 L 443.0,89.0 L 444.0,90.0 L 443.0,91.0 L 441.0,91.0 L 438.0,93.0 L 436.0,93.0 L 435.0,92.0 L 435.0,91.0 L 436.0,90.0 L 435.0,89.0 L 434.0,90.0 L 435.0,91.0 L 433.0,93.0 L 430.0,93.0 L 427.0,91.0 L 427.0,92.0 L 429.0,92.0 L 430.0,93.0 L 430.0,94.0 L 428.0,96.0 L 427.0,96.0 L 427.0,97.0 L 429.0,97.0 L 432.0,95.0 L 437.0,95.0 L 438.0,94.0 L 440.0,94.0 L 441.0,93.0 L 449.0,93.0 L 450.0,92.0 L 454.0,92.0 L 456.0,90.0 L 456.0,89.0 L 457.0,88.0 L 458.0,88.0 L 460.0,91.0 L 464.0,91.0 L 465.0,90.0 L 466.0,90.0 L 468.0,88.0 L 470.0,88.0 L 471.0,87.0 L 471.0,86.0 L 472.0,85.0 Z M 452.0,85.0 L 454.0,85.0 L 455.0,86.0 L 455.0,87.0 L 453.0,89.0 L 451.0,89.0 L 450.0,88.0 L 450.0,87.0 Z M 437.0,82.0 L 439.0,80.0 L 442.0,80.0 L 443.0,79.0 L 443.0,78.0 L 444.0,77.0 L 446.0,77.0 L 447.0,78.0 L 448.0,78.0 L 449.0,79.0 L 449.0,81.0 L 448.0,82.0 L 448.0,83.0 L 449.0,84.0 L 449.0,85.0 L 447.0,87.0 L 446.0,86.0 L 445.0,86.0 L 444.0,85.0 L 442.0,85.0 L 441.0,84.0 L 440.0,84.0 L 439.0,83.0 L 438.0,83.0 Z" fill="rgb(86,161,24)"/>
<path fill-rule="evenodd" d="M 585.0,420.0 L 578.0,420.0 L 577.0,419.0 L 571.0,419.0 L 570.0,420.0 L 566.0,420.0 L 565.0,421.0 L 563.0,421.0 L 560.0,423.0 L 558.0,423.0 L 556.0,425.0 L 556.0,426.0 L 557.0,427.0 L 558.0,430.0 L 560.0,432.0 L 560.0,434.0 L 562.0,437.0 L 562.0,439.0 L 564.0,441.0 L 564.0,443.0 L 565.0,444.0 L 565.0,451.0 L 566.0,452.0 L 566.0,506.0 L 567.0,507.0 L 569.0,505.0 L 570.0,505.0 L 573.0,502.0 L 574.0,502.0 L 578.0,498.0 L 579.0,498.0 L 590.0,487.0 L 590.0,486.0 L 596.0,480.0 L 596.0,479.0 L 600.0,475.0 L 600.0,474.0 L 604.0,469.0 L 605.0,466.0 L 609.0,461.0 L 609.0,460.0 L 610.0,459.0 L 610.0,457.0 L 611.0,456.0 L 611.0,448.0 L 610.0,447.0 L 610.0,441.0 L 609.0,440.0 L 608.0,437.0 L 606.0,435.0 L 606.0,434.0 L 598.0,426.0 L 597.0,426.0 L 595.0,424.0 L 594.0,424.0 L 593.0,423.0 L 591.0,423.0 L 590.0,422.0 L 589.0,422.0 L 588.0,421.0 L 586.0,421.0 Z M 419.0,419.0 L 418.0,420.0 L 415.0,420.0 L 414.0,421.0 L 412.0,421.0 L 411.0,422.0 L 409.0,422.0 L 408.0,423.0 L 406.0,423.0 L 405.0,424.0 L 404.0,424.0 L 402.0,426.0 L 401.0,426.0 L 394.0,433.0 L 394.0,434.0 L 390.0,439.0 L 390.0,443.0 L 389.0,444.0 L 389.0,449.0 L 388.0,450.0 L 388.0,455.0 L 389.0,456.0 L 389.0,458.0 L 390.0,459.0 L 391.0,462.0 L 393.0,464.0 L 393.0,465.0 L 394.0,466.0 L 395.0,469.0 L 398.0,472.0 L 398.0,473.0 L 400.0,475.0 L 400.0,476.0 L 403.0,479.0 L 403.0,480.0 L 419.0,497.0 L 420.0,497.0 L 425.0,502.0 L 426.0,502.0 L 430.0,506.0 L 431.0,506.0 L 433.0,508.0 L 434.0,507.0 L 434.0,450.0 L 435.0,449.0 L 435.0,443.0 L 437.0,440.0 L 437.0,438.0 L 439.0,435.0 L 439.0,433.0 L 441.0,431.0 L 441.0,430.0 L 444.0,425.0 L 442.0,423.0 L 440.0,423.0 L 437.0,421.0 L 434.0,421.0 L 433.0,420.0 L 428.0,420.0 L 427.0,419.0 Z M 490.0,410.0 L 489.0,411.0 L 486.0,411.0 L 485.0,412.0 L 482.0,412.0 L 479.0,414.0 L 477.0,414.0 L 475.0,416.0 L 469.0,419.0 L 459.0,430.0 L 459.0,432.0 L 457.0,434.0 L 457.0,436.0 L 455.0,438.0 L 455.0,440.0 L 453.0,443.0 L 453.0,451.0 L 452.0,452.0 L 452.0,520.0 L 464.0,528.0 L 469.0,530.0 L 471.0,532.0 L 474.0,532.0 L 481.0,536.0 L 483.0,536.0 L 487.0,538.0 L 490.0,538.0 L 493.0,540.0 L 502.0,541.0 L 503.0,540.0 L 506.0,540.0 L 507.0,539.0 L 512.0,538.0 L 515.0,536.0 L 518.0,536.0 L 523.0,533.0 L 528.0,532.0 L 530.0,530.0 L 532.0,530.0 L 537.0,526.0 L 542.0,524.0 L 548.0,519.0 L 548.0,451.0 L 547.0,450.0 L 547.0,446.0 L 546.0,445.0 L 546.0,440.0 L 544.0,438.0 L 540.0,429.0 L 531.0,419.0 L 523.0,414.0 L 521.0,414.0 L 518.0,412.0 L 512.0,411.0 L 511.0,410.0 Z M 573.0,361.0 L 572.0,362.0 L 569.0,362.0 L 568.0,363.0 L 567.0,363.0 L 566.0,364.0 L 564.0,364.0 L 557.0,371.0 L 557.0,372.0 L 555.0,374.0 L 555.0,376.0 L 554.0,377.0 L 554.0,380.0 L 553.0,381.0 L 553.0,387.0 L 554.0,388.0 L 554.0,391.0 L 555.0,392.0 L 555.0,394.0 L 557.0,396.0 L 557.0,397.0 L 560.0,400.0 L 560.0,401.0 L 562.0,403.0 L 563.0,403.0 L 565.0,405.0 L 568.0,405.0 L 569.0,406.0 L 571.0,406.0 L 572.0,407.0 L 578.0,407.0 L 579.0,406.0 L 583.0,406.0 L 584.0,405.0 L 586.0,405.0 L 588.0,403.0 L 589.0,403.0 L 592.0,400.0 L 593.0,400.0 L 593.0,399.0 L 596.0,396.0 L 596.0,395.0 L 597.0,394.0 L 597.0,393.0 L 598.0,392.0 L 598.0,385.0 L 599.0,384.0 L 599.0,383.0 L 598.0,382.0 L 598.0,377.0 L 597.0,376.0 L 597.0,375.0 L 596.0,374.0 L 596.0,373.0 L 594.0,371.0 L 594.0,370.0 L 588.0,364.0 L 586.0,364.0 L 585.0,363.0 L 584.0,363.0 L 583.0,362.0 L 580.0,362.0 L 579.0,361.0 Z M 416.0,362.0 L 414.0,364.0 L 412.0,364.0 L 410.0,366.0 L 409.0,366.0 L 405.0,370.0 L 405.0,371.0 L 403.0,373.0 L 403.0,374.0 L 402.0,375.0 L 402.0,377.0 L 401.0,378.0 L 401.0,390.0 L 402.0,391.0 L 402.0,393.0 L 403.0,394.0 L 403.0,395.0 L 404.0,396.0 L 404.0,397.0 L 410.0,403.0 L 411.0,403.0 L 413.0,405.0 L 415.0,405.0 L 416.0,406.0 L 421.0,406.0 L 422.0,407.0 L 427.0,407.0 L 428.0,406.0 L 431.0,406.0 L 432.0,405.0 L 434.0,405.0 L 436.0,403.0 L 437.0,403.0 L 441.0,399.0 L 441.0,398.0 L 443.0,396.0 L 443.0,395.0 L 445.0,393.0 L 445.0,389.0 L 446.0,388.0 L 446.0,379.0 L 445.0,378.0 L 445.0,375.0 L 443.0,373.0 L 443.0,372.0 L 435.0,364.0 L 433.0,364.0 L 431.0,362.0 L 427.0,362.0 L 426.0,361.0 L 423.0,361.0 L 422.0,362.0 Z M 492.0,327.0 L 491.0,328.0 L 489.0,328.0 L 488.0,329.0 L 487.0,329.0 L 486.0,330.0 L 485.0,330.0 L 484.0,331.0 L 481.0,332.0 L 478.0,335.0 L 477.0,335.0 L 471.0,342.0 L 471.0,344.0 L 469.0,346.0 L 469.0,347.0 L 467.0,350.0 L 467.0,357.0 L 466.0,358.0 L 466.0,362.0 L 467.0,363.0 L 467.0,370.0 L 468.0,371.0 L 468.0,372.0 L 469.0,373.0 L 469.0,374.0 L 470.0,375.0 L 471.0,378.0 L 473.0,380.0 L 473.0,381.0 L 479.0,387.0 L 480.0,387.0 L 483.0,390.0 L 484.0,390.0 L 485.0,391.0 L 488.0,391.0 L 490.0,393.0 L 493.0,393.0 L 494.0,394.0 L 504.0,394.0 L 505.0,393.0 L 508.0,393.0 L 511.0,391.0 L 514.0,391.0 L 515.0,390.0 L 516.0,390.0 L 518.0,388.0 L 519.0,388.0 L 526.0,381.0 L 526.0,380.0 L 528.0,378.0 L 528.0,377.0 L 530.0,375.0 L 530.0,374.0 L 532.0,371.0 L 532.0,366.0 L 533.0,365.0 L 533.0,355.0 L 532.0,354.0 L 532.0,350.0 L 531.0,349.0 L 531.0,348.0 L 530.0,347.0 L 530.0,346.0 L 529.0,345.0 L 528.0,342.0 L 526.0,340.0 L 526.0,339.0 L 521.0,334.0 L 520.0,334.0 L 518.0,332.0 L 517.0,332.0 L 516.0,331.0 L 513.0,330.0 L 511.0,328.0 L 509.0,328.0 L 508.0,327.0 Z" fill="rgb(245,144,4)"/>
<path fill-rule="evenodd" d="M 450.0,875.0 L 450.0,877.0 L 451.0,878.0 L 451.0,879.0 L 452.0,880.0 L 455.0,880.0 L 456.0,879.0 L 461.0,879.0 L 462.0,880.0 L 464.0,880.0 L 465.0,879.0 L 466.0,879.0 L 463.0,879.0 L 462.0,878.0 L 459.0,878.0 L 457.0,876.0 L 456.0,876.0 L 455.0,875.0 Z M 432.0,876.0 L 433.0,877.0 L 435.0,877.0 L 436.0,876.0 L 438.0,876.0 L 439.0,875.0 L 439.0,874.0 L 433.0,874.0 L 432.0,875.0 Z M 746.0,400.0 L 745.0,401.0 L 743.0,401.0 L 741.0,403.0 L 740.0,403.0 L 740.0,404.0 L 741.0,404.0 L 742.0,403.0 L 743.0,403.0 L 745.0,405.0 L 743.0,407.0 L 739.0,407.0 L 738.0,408.0 L 738.0,414.0 L 739.0,415.0 L 739.0,416.0 L 741.0,418.0 L 742.0,418.0 L 743.0,419.0 L 744.0,419.0 L 745.0,420.0 L 751.0,420.0 L 753.0,418.0 L 754.0,418.0 L 756.0,416.0 L 756.0,415.0 L 758.0,413.0 L 758.0,410.0 L 757.0,409.0 L 757.0,406.0 L 756.0,405.0 L 756.0,404.0 L 752.0,400.0 Z M 255.0,400.0 L 249.0,400.0 L 248.0,401.0 L 246.0,401.0 L 243.0,404.0 L 243.0,405.0 L 242.0,406.0 L 242.0,413.0 L 243.0,414.0 L 243.0,416.0 L 245.0,418.0 L 246.0,418.0 L 247.0,419.0 L 248.0,419.0 L 249.0,420.0 L 252.0,420.0 L 253.0,419.0 L 254.0,419.0 L 255.0,418.0 L 258.0,418.0 L 261.0,415.0 L 261.0,409.0 L 260.0,408.0 L 260.0,404.0 L 257.0,401.0 L 256.0,401.0 Z M 253.0,198.0 L 248.0,198.0 L 240.0,207.0 L 238.0,211.0 L 235.0,214.0 L 235.0,216.0 L 231.0,220.0 L 231.0,222.0 L 228.0,225.0 L 227.0,228.0 L 225.0,230.0 L 225.0,233.0 L 221.0,238.0 L 220.0,242.0 L 217.0,245.0 L 217.0,247.0 L 213.0,253.0 L 214.0,254.0 L 211.0,257.0 L 209.0,265.0 L 206.0,269.0 L 205.0,274.0 L 201.0,282.0 L 201.0,285.0 L 198.0,290.0 L 196.0,301.0 L 195.0,302.0 L 195.0,304.0 L 193.0,308.0 L 193.0,311.0 L 192.0,312.0 L 192.0,318.0 L 190.0,322.0 L 190.0,326.0 L 189.0,327.0 L 189.0,330.0 L 187.0,334.0 L 187.0,342.0 L 186.0,343.0 L 185.0,350.0 L 186.0,351.0 L 186.0,354.0 L 191.0,358.0 L 195.0,357.0 L 200.0,352.0 L 200.0,349.0 L 201.0,348.0 L 201.0,339.0 L 202.0,338.0 L 202.0,335.0 L 204.0,333.0 L 204.0,325.0 L 205.0,324.0 L 206.0,318.0 L 208.0,315.0 L 208.0,308.0 L 212.0,300.0 L 212.0,296.0 L 214.0,294.0 L 214.0,291.0 L 216.0,288.0 L 217.0,282.0 L 219.0,280.0 L 220.0,274.0 L 224.0,268.0 L 224.0,266.0 L 228.0,259.0 L 228.0,257.0 L 230.0,255.0 L 230.0,253.0 L 233.0,247.0 L 240.0,237.0 L 242.0,232.0 L 248.0,224.0 L 249.0,221.0 L 256.0,212.0 L 259.0,206.0 L 258.0,203.0 Z M 748.0,197.0 L 742.0,204.0 L 742.0,208.0 L 747.0,214.0 L 747.0,216.0 L 752.0,221.0 L 754.0,226.0 L 760.0,234.0 L 762.0,239.0 L 768.0,248.0 L 773.0,258.0 L 773.0,260.0 L 775.0,262.0 L 775.0,264.0 L 777.0,268.0 L 779.0,270.0 L 780.0,276.0 L 784.0,282.0 L 784.0,287.0 L 785.0,288.0 L 785.0,290.0 L 787.0,292.0 L 788.0,297.0 L 790.0,300.0 L 792.0,312.0 L 795.0,318.0 L 796.0,330.0 L 797.0,331.0 L 798.0,337.0 L 799.0,338.0 L 799.0,341.0 L 800.0,342.0 L 799.0,351.0 L 800.0,353.0 L 806.0,358.0 L 810.0,358.0 L 813.0,355.0 L 815.0,350.0 L 814.0,348.0 L 814.0,340.0 L 813.0,339.0 L 813.0,335.0 L 812.0,334.0 L 812.0,327.0 L 810.0,324.0 L 810.0,320.0 L 808.0,318.0 L 808.0,311.0 L 806.0,307.0 L 806.0,302.0 L 804.0,300.0 L 804.0,296.0 L 802.0,292.0 L 802.0,289.0 L 801.0,288.0 L 800.0,283.0 L 798.0,281.0 L 796.0,273.0 L 794.0,271.0 L 793.0,266.0 L 790.0,261.0 L 790.0,258.0 L 786.0,252.0 L 786.0,249.0 L 782.0,244.0 L 782.0,242.0 L 779.0,239.0 L 778.0,235.0 L 776.0,233.0 L 774.0,228.0 L 768.0,221.0 L 767.0,217.0 L 760.0,207.0 L 755.0,202.0 L 755.0,201.0 L 752.0,198.0 Z M 531.0,144.0 L 531.0,147.0 L 539.0,154.0 L 549.0,154.0 L 565.0,160.0 L 572.0,160.0 L 579.0,164.0 L 595.0,169.0 L 615.0,179.0 L 633.0,191.0 L 637.0,192.0 L 643.0,198.0 L 646.0,198.0 L 655.0,208.0 L 665.0,216.0 L 679.0,230.0 L 695.0,250.0 L 714.0,281.0 L 720.0,297.0 L 725.0,304.0 L 728.0,318.0 L 732.0,326.0 L 732.0,334.0 L 736.0,344.0 L 736.0,353.0 L 744.0,357.0 L 749.0,352.0 L 750.0,338.0 L 746.0,330.0 L 746.0,323.0 L 735.0,290.0 L 713.0,249.0 L 682.0,211.0 L 668.0,198.0 L 638.0,175.0 L 607.0,158.0 L 599.0,156.0 L 589.0,150.0 L 577.0,146.0 L 569.0,146.0 L 563.0,143.0 L 555.0,142.0 L 553.0,140.0 L 542.0,141.0 L 540.0,138.0 L 538.0,138.0 Z M 472.0,143.0 L 467.0,139.0 L 459.0,138.0 L 447.0,142.0 L 433.0,144.0 L 431.0,146.0 L 426.0,146.0 L 404.0,154.0 L 368.0,172.0 L 330.0,201.0 L 310.0,221.0 L 295.0,239.0 L 273.0,274.0 L 272.0,279.0 L 269.0,283.0 L 269.0,287.0 L 265.0,291.0 L 264.0,298.0 L 261.0,302.0 L 256.0,320.0 L 253.0,325.0 L 253.0,334.0 L 249.0,342.0 L 249.0,352.0 L 254.0,356.0 L 260.0,356.0 L 263.0,353.0 L 264.0,344.0 L 268.0,335.0 L 268.0,328.0 L 272.0,319.0 L 272.0,315.0 L 278.0,303.0 L 279.0,296.0 L 297.0,263.0 L 313.0,242.0 L 313.0,237.0 L 315.0,235.0 L 318.0,235.0 L 349.0,204.0 L 356.0,200.0 L 366.0,191.0 L 383.0,182.0 L 387.0,178.0 L 419.0,164.0 L 424.0,164.0 L 426.0,162.0 L 451.0,155.0 L 464.0,154.0 L 472.0,148.0 Z M 579.0,87.0 L 577.0,89.0 L 579.0,91.0 L 581.0,91.0 L 582.0,90.0 L 582.0,88.0 L 581.0,87.0 Z M 589.0,93.0 L 589.0,99.0 L 590.0,100.0 L 597.0,101.0 L 600.0,103.0 L 602.0,103.0 L 604.0,105.0 L 607.0,105.0 L 613.0,108.0 L 615.0,107.0 L 621.0,112.0 L 624.0,112.0 L 628.0,114.0 L 630.0,116.0 L 638.0,119.0 L 643.0,123.0 L 645.0,122.0 L 647.0,123.0 L 648.0,125.0 L 649.0,125.0 L 657.0,131.0 L 659.0,131.0 L 662.0,134.0 L 669.0,138.0 L 672.0,141.0 L 678.0,144.0 L 686.0,152.0 L 690.0,154.0 L 709.0,172.0 L 715.0,172.0 L 720.0,166.0 L 720.0,163.0 L 713.0,156.0 L 713.0,155.0 L 704.0,147.0 L 703.0,147.0 L 702.0,145.0 L 701.0,145.0 L 693.0,137.0 L 689.0,135.0 L 677.0,125.0 L 674.0,124.0 L 668.0,119.0 L 665.0,119.0 L 662.0,116.0 L 661.0,116.0 L 653.0,110.0 L 651.0,110.0 L 649.0,108.0 L 647.0,108.0 L 645.0,106.0 L 643.0,106.0 L 639.0,104.0 L 637.0,102.0 L 632.0,101.0 L 619.0,94.0 L 616.0,94.0 L 612.0,91.0 L 606.0,90.0 L 604.0,88.0 L 600.0,88.0 L 597.0,86.0 L 597.0,88.0 L 596.0,89.0 L 593.0,89.0 L 594.0,91.0 L 593.0,93.0 L 591.0,92.0 Z M 443.0,90.0 L 441.0,87.0 L 436.0,87.0 L 433.0,85.0 L 432.0,86.0 L 430.0,86.0 L 427.0,82.0 L 423.0,82.0 L 422.0,83.0 L 419.0,83.0 L 416.0,85.0 L 413.0,84.0 L 409.0,86.0 L 402.0,87.0 L 398.0,90.0 L 393.0,90.0 L 389.0,93.0 L 378.0,96.0 L 376.0,98.0 L 373.0,98.0 L 365.0,102.0 L 363.0,104.0 L 363.0,106.0 L 362.0,107.0 L 361.0,106.0 L 359.0,106.0 L 357.0,108.0 L 354.0,108.0 L 352.0,110.0 L 350.0,110.0 L 348.0,112.0 L 346.0,112.0 L 341.0,116.0 L 339.0,116.0 L 334.0,120.0 L 332.0,120.0 L 331.0,121.0 L 331.0,123.0 L 329.0,125.0 L 324.0,126.0 L 317.0,132.0 L 315.0,132.0 L 312.0,134.0 L 305.0,141.0 L 299.0,145.0 L 296.0,149.0 L 282.0,162.0 L 281.0,167.0 L 282.0,169.0 L 286.0,172.0 L 291.0,172.0 L 316.0,150.0 L 320.0,148.0 L 326.0,142.0 L 329.0,141.0 L 333.0,137.0 L 339.0,134.0 L 347.0,128.0 L 354.0,125.0 L 356.0,123.0 L 360.0,122.0 L 365.0,118.0 L 367.0,118.0 L 373.0,114.0 L 381.0,112.0 L 385.0,109.0 L 389.0,108.0 L 391.0,106.0 L 394.0,106.0 L 396.0,104.0 L 399.0,105.0 L 406.0,101.0 L 413.0,100.0 L 414.0,99.0 L 417.0,99.0 L 420.0,97.0 L 426.0,96.0 L 428.0,95.0 L 430.0,92.0 L 433.0,92.0 L 434.0,91.0 L 433.0,90.0 L 435.0,88.0 L 437.0,90.0 L 436.0,92.0 Z M 471.0,79.0 L 467.0,79.0 L 467.0,82.0 L 466.0,83.0 L 465.0,83.0 L 465.0,84.0 L 466.0,85.0 L 466.0,86.0 L 467.0,87.0 L 467.0,85.0 L 471.0,81.0 Z M 438.0,82.0 L 439.0,82.0 L 440.0,83.0 L 441.0,83.0 L 442.0,84.0 L 444.0,84.0 L 445.0,85.0 L 446.0,85.0 L 447.0,86.0 L 448.0,85.0 L 448.0,84.0 L 447.0,83.0 L 447.0,82.0 L 448.0,81.0 L 448.0,79.0 L 447.0,79.0 L 446.0,78.0 L 444.0,78.0 L 444.0,79.0 L 442.0,81.0 L 439.0,81.0 Z" fill="rgb(73,153,5)"/>
<path fill-rule="evenodd" d="M 683.0,820.0 L 681.0,820.0 L 680.0,821.0 L 679.0,821.0 L 678.0,822.0 L 677.0,822.0 L 676.0,823.0 L 674.0,823.0 L 673.0,824.0 L 672.0,824.0 L 671.0,825.0 L 669.0,825.0 L 667.0,827.0 L 665.0,827.0 L 664.0,828.0 L 663.0,828.0 L 662.0,829.0 L 661.0,829.0 L 658.0,832.0 L 654.0,832.0 L 653.0,833.0 L 650.0,833.0 L 649.0,834.0 L 647.0,834.0 L 645.0,836.0 L 645.0,837.0 L 644.0,838.0 L 646.0,840.0 L 647.0,840.0 L 648.0,841.0 L 649.0,841.0 L 650.0,842.0 L 651.0,841.0 L 653.0,841.0 L 654.0,840.0 L 655.0,840.0 L 656.0,839.0 L 657.0,839.0 L 658.0,838.0 L 657.0,837.0 L 657.0,836.0 L 658.0,835.0 L 661.0,835.0 L 663.0,833.0 L 665.0,833.0 L 666.0,832.0 L 667.0,832.0 L 668.0,831.0 L 669.0,831.0 L 672.0,828.0 L 673.0,828.0 L 678.0,823.0 L 679.0,823.0 L 681.0,821.0 L 682.0,821.0 Z M 479.0,813.0 L 479.0,815.0 L 480.0,816.0 L 480.0,818.0 L 483.0,821.0 L 484.0,820.0 L 484.0,817.0 L 483.0,816.0 L 483.0,815.0 L 481.0,813.0 Z M 729.0,704.0 L 730.0,705.0 L 733.0,705.0 L 734.0,706.0 L 736.0,706.0 L 737.0,705.0 L 738.0,706.0 L 739.0,705.0 L 737.0,703.0 L 730.0,703.0 Z M 730.0,714.0 L 729.0,713.0 L 727.0,713.0 L 724.0,708.0 L 718.0,707.0 L 715.0,704.0 L 708.0,704.0 L 705.0,707.0 L 700.0,707.0 L 697.0,704.0 L 688.0,704.0 L 687.0,703.0 L 681.0,703.0 L 680.0,702.0 L 679.0,703.0 L 672.0,703.0 L 670.0,702.0 L 666.0,704.0 L 665.0,703.0 L 663.0,703.0 L 660.0,700.0 L 660.0,698.0 L 661.0,697.0 L 660.0,696.0 L 657.0,696.0 L 654.0,699.0 L 652.0,698.0 L 650.0,700.0 L 648.0,700.0 L 646.0,698.0 L 642.0,698.0 L 638.0,702.0 L 637.0,702.0 L 633.0,706.0 L 632.0,706.0 L 618.0,721.0 L 616.0,725.0 L 611.0,730.0 L 611.0,731.0 L 605.0,738.0 L 604.0,741.0 L 602.0,743.0 L 600.0,747.0 L 597.0,750.0 L 596.0,753.0 L 594.0,755.0 L 594.0,757.0 L 590.0,762.0 L 590.0,764.0 L 591.0,765.0 L 596.0,765.0 L 597.0,764.0 L 611.0,764.0 L 612.0,763.0 L 615.0,763.0 L 616.0,762.0 L 623.0,762.0 L 624.0,761.0 L 628.0,761.0 L 629.0,760.0 L 636.0,760.0 L 637.0,759.0 L 643.0,758.0 L 644.0,757.0 L 647.0,757.0 L 651.0,755.0 L 659.0,754.0 L 664.0,751.0 L 667.0,751.0 L 675.0,747.0 L 677.0,747.0 L 680.0,745.0 L 682.0,745.0 L 700.0,736.0 L 708.0,730.0 L 716.0,726.0 L 719.0,723.0 L 724.0,720.0 Z M 261.0,706.0 L 262.0,709.0 L 266.0,713.0 L 269.0,714.0 L 276.0,721.0 L 280.0,723.0 L 283.0,726.0 L 286.0,727.0 L 299.0,736.0 L 315.0,744.0 L 317.0,744.0 L 322.0,747.0 L 324.0,747.0 L 329.0,750.0 L 335.0,751.0 L 340.0,754.0 L 344.0,754.0 L 351.0,757.0 L 359.0,758.0 L 360.0,759.0 L 367.0,760.0 L 368.0,761.0 L 382.0,762.0 L 383.0,763.0 L 387.0,763.0 L 388.0,764.0 L 402.0,764.0 L 403.0,765.0 L 408.0,765.0 L 409.0,764.0 L 405.0,756.0 L 403.0,754.0 L 401.0,749.0 L 395.0,742.0 L 395.0,740.0 L 392.0,737.0 L 391.0,734.0 L 385.0,728.0 L 385.0,727.0 L 374.0,715.0 L 374.0,714.0 L 356.0,697.0 L 353.0,695.0 L 351.0,695.0 L 349.0,693.0 L 346.0,693.0 L 344.0,690.0 L 343.0,690.0 L 343.0,691.0 L 346.0,694.0 L 346.0,696.0 L 340.0,701.0 L 339.0,701.0 L 337.0,698.0 L 336.0,699.0 L 326.0,699.0 L 325.0,701.0 L 321.0,704.0 L 319.0,704.0 L 318.0,703.0 L 308.0,703.0 L 307.0,704.0 L 305.0,704.0 L 304.0,703.0 L 281.0,702.0 L 280.0,703.0 L 278.0,703.0 L 276.0,707.0 L 270.0,703.0 L 264.0,702.0 Z M 411.0,674.0 L 408.0,676.0 L 408.0,678.0 L 406.0,682.0 L 403.0,684.0 L 400.0,684.0 L 398.0,686.0 L 394.0,687.0 L 393.0,689.0 L 396.0,689.0 L 397.0,690.0 L 397.0,691.0 L 394.0,693.0 L 394.0,694.0 L 395.0,693.0 L 397.0,695.0 L 396.0,697.0 L 399.0,700.0 L 399.0,702.0 L 401.0,703.0 L 403.0,707.0 L 407.0,711.0 L 407.0,712.0 L 409.0,713.0 L 409.0,714.0 L 423.0,730.0 L 424.0,733.0 L 428.0,737.0 L 428.0,739.0 L 435.0,748.0 L 435.0,750.0 L 439.0,754.0 L 439.0,756.0 L 441.0,758.0 L 443.0,763.0 L 455.0,781.0 L 463.0,791.0 L 464.0,794.0 L 467.0,797.0 L 468.0,800.0 L 471.0,803.0 L 473.0,807.0 L 477.0,811.0 L 478.0,810.0 L 478.0,808.0 L 476.0,804.0 L 469.0,795.0 L 468.0,792.0 L 463.0,786.0 L 462.0,783.0 L 459.0,780.0 L 458.0,777.0 L 453.0,771.0 L 453.0,767.0 L 451.0,763.0 L 451.0,759.0 L 450.0,758.0 L 450.0,755.0 L 449.0,754.0 L 448.0,748.0 L 447.0,747.0 L 447.0,743.0 L 446.0,742.0 L 445.0,733.0 L 442.0,726.0 L 442.0,722.0 L 440.0,719.0 L 440.0,716.0 L 438.0,713.0 L 437.0,705.0 L 434.0,700.0 L 434.0,696.0 L 430.0,688.0 L 429.0,683.0 L 427.0,681.0 L 426.0,677.0 L 424.0,675.0 L 420.0,677.0 L 419.0,676.0 L 419.0,673.0 L 417.0,672.0 L 412.0,675.0 Z M 596.0,673.0 L 592.0,671.0 L 588.0,672.0 L 584.0,668.0 L 583.0,668.0 L 581.0,671.0 L 579.0,669.0 L 579.0,666.0 L 578.0,666.0 L 578.0,668.0 L 573.0,674.0 L 573.0,676.0 L 569.0,682.0 L 569.0,686.0 L 567.0,688.0 L 567.0,691.0 L 565.0,694.0 L 565.0,698.0 L 562.0,702.0 L 562.0,704.0 L 561.0,705.0 L 561.0,710.0 L 559.0,712.0 L 559.0,715.0 L 557.0,719.0 L 557.0,725.0 L 555.0,727.0 L 555.0,732.0 L 553.0,735.0 L 553.0,739.0 L 552.0,740.0 L 553.0,743.0 L 551.0,745.0 L 551.0,751.0 L 549.0,753.0 L 549.0,758.0 L 547.0,761.0 L 547.0,766.0 L 545.0,770.0 L 545.0,773.0 L 542.0,776.0 L 541.0,779.0 L 537.0,784.0 L 537.0,786.0 L 527.0,800.0 L 527.0,802.0 L 523.0,806.0 L 522.0,810.0 L 517.0,816.0 L 519.0,819.0 L 521.0,819.0 L 522.0,818.0 L 522.0,816.0 L 530.0,805.0 L 532.0,800.0 L 536.0,795.0 L 536.0,793.0 L 540.0,789.0 L 540.0,787.0 L 546.0,779.0 L 546.0,777.0 L 548.0,775.0 L 550.0,770.0 L 556.0,762.0 L 557.0,758.0 L 560.0,754.0 L 561.0,751.0 L 569.0,741.0 L 570.0,738.0 L 573.0,735.0 L 575.0,731.0 L 589.0,715.0 L 589.0,714.0 L 605.0,697.0 L 605.0,696.0 L 611.0,691.0 L 611.0,689.0 L 609.0,687.0 L 609.0,682.0 L 606.0,679.0 L 603.0,679.0 L 599.0,677.0 Z" fill="rgb(24,134,28)"/>
<path fill-rule="evenodd" d="M 313.0,817.0 L 320.0,824.0 L 328.0,824.0 L 330.0,827.0 L 328.0,829.0 L 329.0,831.0 L 335.0,829.0 L 337.0,832.0 L 336.0,835.0 L 365.0,853.0 L 410.0,871.0 L 414.0,870.0 L 424.0,875.0 L 435.0,873.0 L 443.0,868.0 L 451.0,870.0 L 456.0,867.0 L 453.0,866.0 L 455.0,863.0 L 460.0,863.0 L 464.0,859.0 L 470.0,859.0 L 479.0,864.0 L 478.0,860.0 L 480.0,858.0 L 488.0,858.0 L 491.0,861.0 L 496.0,860.0 L 501.0,862.0 L 506.0,859.0 L 509.0,861.0 L 513.0,860.0 L 517.0,864.0 L 527.0,862.0 L 537.0,865.0 L 541.0,872.0 L 543.0,869.0 L 557.0,871.0 L 562.0,873.0 L 564.0,877.0 L 568.0,877.0 L 573.0,871.0 L 576.0,871.0 L 578.0,874.0 L 581.0,871.0 L 589.0,871.0 L 598.0,866.0 L 602.0,867.0 L 640.0,850.0 L 650.0,843.0 L 643.0,838.0 L 644.0,835.0 L 643.0,837.0 L 632.0,838.0 L 632.0,842.0 L 627.0,839.0 L 601.0,847.0 L 575.0,851.0 L 519.0,852.0 L 510.0,849.0 L 506.0,845.0 L 507.0,837.0 L 515.0,829.0 L 519.0,820.0 L 516.0,819.0 L 506.0,834.0 L 500.0,838.0 L 485.0,818.0 L 483.0,823.0 L 495.0,838.0 L 497.0,844.0 L 495.0,847.0 L 478.0,852.0 L 464.0,851.0 L 455.0,853.0 L 424.0,851.0 L 380.0,843.0 L 338.0,829.0 Z M 643.0,697.0 L 646.0,697.0 L 648.0,699.0 L 650.0,699.0 L 652.0,697.0 L 654.0,698.0 L 657.0,695.0 L 660.0,695.0 L 662.0,697.0 L 661.0,698.0 L 661.0,700.0 L 663.0,702.0 L 665.0,702.0 L 666.0,703.0 L 670.0,701.0 L 672.0,702.0 L 679.0,702.0 L 680.0,701.0 L 681.0,702.0 L 687.0,702.0 L 688.0,703.0 L 697.0,703.0 L 700.0,706.0 L 705.0,706.0 L 708.0,703.0 L 715.0,703.0 L 718.0,706.0 L 720.0,706.0 L 721.0,707.0 L 724.0,707.0 L 726.0,709.0 L 727.0,712.0 L 729.0,712.0 L 730.0,713.0 L 733.0,713.0 L 738.0,708.0 L 738.0,707.0 L 737.0,706.0 L 736.0,707.0 L 734.0,707.0 L 733.0,706.0 L 730.0,706.0 L 728.0,704.0 L 730.0,702.0 L 737.0,702.0 L 740.0,705.0 L 741.0,705.0 L 753.0,693.0 L 753.0,692.0 L 757.0,688.0 L 757.0,687.0 L 763.0,681.0 L 763.0,679.0 L 762.0,678.0 L 760.0,678.0 L 758.0,680.0 L 754.0,681.0 L 752.0,679.0 L 748.0,680.0 L 745.0,677.0 L 745.0,676.0 L 742.0,676.0 L 741.0,677.0 L 735.0,677.0 L 733.0,679.0 L 727.0,679.0 L 726.0,680.0 L 724.0,680.0 L 723.0,679.0 L 720.0,679.0 L 717.0,681.0 L 712.0,681.0 L 711.0,680.0 L 710.0,681.0 L 708.0,680.0 L 705.0,676.0 L 703.0,677.0 L 701.0,676.0 L 699.0,677.0 L 696.0,677.0 L 695.0,676.0 L 693.0,676.0 L 692.0,677.0 L 689.0,677.0 L 685.0,674.0 L 679.0,674.0 L 678.0,673.0 L 674.0,672.0 L 671.0,675.0 L 670.0,675.0 L 670.0,676.0 L 668.0,678.0 L 666.0,678.0 L 660.0,683.0 L 659.0,683.0 L 654.0,688.0 L 650.0,690.0 L 644.0,696.0 L 643.0,696.0 Z M 352.0,693.0 L 350.0,691.0 L 346.0,689.0 L 339.0,682.0 L 335.0,680.0 L 328.0,674.0 L 327.0,674.0 L 325.0,672.0 L 323.0,672.0 L 318.0,667.0 L 317.0,667.0 L 315.0,670.0 L 314.0,670.0 L 312.0,667.0 L 311.0,669.0 L 309.0,670.0 L 306.0,668.0 L 306.0,665.0 L 304.0,667.0 L 302.0,667.0 L 301.0,666.0 L 297.0,666.0 L 294.0,669.0 L 288.0,669.0 L 286.0,671.0 L 283.0,671.0 L 282.0,672.0 L 278.0,672.0 L 277.0,673.0 L 274.0,673.0 L 273.0,672.0 L 270.0,672.0 L 269.0,673.0 L 268.0,672.0 L 266.0,672.0 L 264.0,674.0 L 256.0,674.0 L 252.0,670.0 L 249.0,669.0 L 248.0,670.0 L 248.0,672.0 L 246.0,674.0 L 244.0,674.0 L 241.0,677.0 L 239.0,675.0 L 240.0,673.0 L 238.0,674.0 L 238.0,675.0 L 236.0,677.0 L 235.0,676.0 L 233.0,677.0 L 236.0,680.0 L 237.0,683.0 L 244.0,690.0 L 244.0,691.0 L 249.0,696.0 L 249.0,697.0 L 251.0,698.0 L 253.0,700.0 L 253.0,701.0 L 258.0,705.0 L 258.0,706.0 L 260.0,706.0 L 264.0,701.0 L 267.0,701.0 L 268.0,702.0 L 270.0,702.0 L 275.0,706.0 L 276.0,706.0 L 276.0,704.0 L 278.0,702.0 L 280.0,702.0 L 281.0,701.0 L 290.0,701.0 L 291.0,702.0 L 304.0,702.0 L 305.0,703.0 L 307.0,703.0 L 308.0,702.0 L 318.0,702.0 L 319.0,703.0 L 321.0,703.0 L 323.0,702.0 L 326.0,698.0 L 336.0,698.0 L 337.0,697.0 L 339.0,699.0 L 339.0,700.0 L 340.0,700.0 L 345.0,696.0 L 345.0,694.0 L 342.0,691.0 L 343.0,689.0 L 344.0,689.0 L 346.0,692.0 L 349.0,692.0 L 351.0,694.0 Z M 401.0,641.0 L 398.0,641.0 L 398.0,645.0 L 397.0,646.0 L 397.0,647.0 L 395.0,649.0 L 395.0,650.0 L 390.0,655.0 L 388.0,653.0 L 386.0,653.0 L 384.0,655.0 L 384.0,656.0 L 381.0,658.0 L 380.0,657.0 L 379.0,657.0 L 376.0,655.0 L 373.0,655.0 L 372.0,656.0 L 370.0,656.0 L 369.0,655.0 L 368.0,655.0 L 367.0,656.0 L 367.0,658.0 L 368.0,659.0 L 368.0,662.0 L 367.0,663.0 L 367.0,672.0 L 380.0,685.0 L 381.0,685.0 L 386.0,690.0 L 387.0,690.0 L 389.0,692.0 L 389.0,693.0 L 397.0,701.0 L 398.0,701.0 L 398.0,700.0 L 395.0,697.0 L 396.0,696.0 L 396.0,695.0 L 395.0,694.0 L 394.0,695.0 L 393.0,694.0 L 393.0,693.0 L 394.0,692.0 L 395.0,692.0 L 396.0,691.0 L 396.0,690.0 L 393.0,690.0 L 392.0,689.0 L 393.0,688.0 L 393.0,687.0 L 396.0,685.0 L 398.0,685.0 L 400.0,683.0 L 403.0,683.0 L 405.0,681.0 L 406.0,681.0 L 406.0,679.0 L 407.0,678.0 L 407.0,676.0 L 409.0,674.0 L 410.0,674.0 L 411.0,673.0 L 412.0,674.0 L 413.0,673.0 L 414.0,673.0 L 416.0,671.0 L 417.0,671.0 L 420.0,673.0 L 420.0,676.0 L 421.0,675.0 L 422.0,675.0 L 424.0,673.0 L 423.0,670.0 L 421.0,668.0 L 421.0,666.0 L 420.0,665.0 L 419.0,662.0 L 417.0,660.0 L 416.0,657.0 L 412.0,652.0 L 412.0,650.0 L 409.0,647.0 L 409.0,646.0 L 408.0,645.0 L 407.0,645.0 L 406.0,644.0 L 403.0,644.0 Z M 595.0,638.0 L 594.0,639.0 L 593.0,639.0 L 591.0,641.0 L 591.0,643.0 L 587.0,647.0 L 587.0,649.0 L 584.0,652.0 L 584.0,653.0 L 583.0,654.0 L 583.0,655.0 L 581.0,657.0 L 581.0,658.0 L 580.0,659.0 L 580.0,660.0 L 579.0,661.0 L 579.0,663.0 L 578.0,664.0 L 580.0,666.0 L 580.0,669.0 L 581.0,670.0 L 582.0,669.0 L 582.0,668.0 L 583.0,667.0 L 584.0,667.0 L 588.0,671.0 L 590.0,671.0 L 591.0,670.0 L 592.0,670.0 L 593.0,671.0 L 594.0,671.0 L 595.0,672.0 L 596.0,672.0 L 599.0,675.0 L 599.0,676.0 L 600.0,676.0 L 601.0,677.0 L 602.0,677.0 L 603.0,678.0 L 606.0,678.0 L 610.0,682.0 L 610.0,687.0 L 612.0,689.0 L 612.0,690.0 L 613.0,690.0 L 620.0,683.0 L 621.0,683.0 L 623.0,681.0 L 623.0,680.0 L 626.0,677.0 L 627.0,677.0 L 630.0,674.0 L 631.0,674.0 L 636.0,669.0 L 636.0,667.0 L 634.0,665.0 L 633.0,665.0 L 632.0,664.0 L 631.0,664.0 L 629.0,662.0 L 628.0,662.0 L 625.0,659.0 L 625.0,658.0 L 624.0,657.0 L 624.0,656.0 L 623.0,656.0 L 622.0,655.0 L 621.0,655.0 L 620.0,656.0 L 619.0,655.0 L 616.0,655.0 L 609.0,648.0 L 609.0,647.0 L 606.0,644.0 L 604.0,644.0 L 603.0,643.0 L 598.0,643.0 L 597.0,642.0 L 597.0,640.0 Z" fill="rgb(48,143,22)"/>
<path fill-rule="evenodd" d="M 576.0,872.0 L 573.0,872.0 L 572.0,873.0 L 572.0,875.0 L 571.0,876.0 L 571.0,877.0 L 572.0,877.0 L 573.0,876.0 L 576.0,876.0 L 577.0,875.0 L 577.0,874.0 L 576.0,873.0 Z M 436.0,877.0 L 437.0,879.0 L 450.0,881.0 L 451.0,880.0 L 449.0,877.0 L 449.0,875.0 L 450.0,874.0 L 455.0,874.0 L 459.0,877.0 L 462.0,877.0 L 467.0,879.0 L 464.0,881.0 L 462.0,881.0 L 461.0,880.0 L 456.0,880.0 L 455.0,881.0 L 453.0,881.0 L 453.0,882.0 L 458.0,882.0 L 459.0,883.0 L 476.0,883.0 L 479.0,885.0 L 481.0,885.0 L 482.0,884.0 L 485.0,884.0 L 486.0,885.0 L 490.0,884.0 L 491.0,886.0 L 494.0,886.0 L 496.0,884.0 L 501.0,885.0 L 503.0,883.0 L 507.0,885.0 L 510.0,885.0 L 513.0,883.0 L 516.0,885.0 L 523.0,884.0 L 524.0,883.0 L 526.0,884.0 L 528.0,883.0 L 540.0,883.0 L 544.0,881.0 L 547.0,882.0 L 548.0,881.0 L 552.0,881.0 L 553.0,880.0 L 559.0,880.0 L 558.0,878.0 L 559.0,877.0 L 564.0,879.0 L 562.0,876.0 L 562.0,874.0 L 559.0,874.0 L 557.0,872.0 L 551.0,872.0 L 548.0,870.0 L 543.0,870.0 L 541.0,873.0 L 539.0,871.0 L 533.0,868.0 L 534.0,866.0 L 536.0,866.0 L 535.0,865.0 L 530.0,865.0 L 527.0,863.0 L 524.0,863.0 L 522.0,865.0 L 517.0,865.0 L 515.0,864.0 L 513.0,861.0 L 512.0,862.0 L 509.0,862.0 L 506.0,860.0 L 503.0,863.0 L 497.0,862.0 L 496.0,861.0 L 493.0,861.0 L 491.0,862.0 L 488.0,859.0 L 486.0,859.0 L 482.0,862.0 L 481.0,861.0 L 481.0,859.0 L 480.0,859.0 L 479.0,860.0 L 479.0,862.0 L 480.0,863.0 L 479.0,865.0 L 478.0,865.0 L 475.0,862.0 L 473.0,862.0 L 470.0,860.0 L 468.0,861.0 L 465.0,861.0 L 464.0,860.0 L 460.0,864.0 L 455.0,864.0 L 454.0,866.0 L 456.0,866.0 L 457.0,867.0 L 456.0,868.0 L 454.0,868.0 L 451.0,871.0 L 448.0,869.0 L 446.0,870.0 L 447.0,871.0 L 445.0,873.0 L 442.0,873.0 L 441.0,871.0 L 439.0,871.0 L 438.0,872.0 L 440.0,875.0 L 438.0,877.0 Z M 494.0,879.0 L 495.0,878.0 L 498.0,878.0 L 499.0,879.0 L 499.0,880.0 L 497.0,882.0 L 496.0,882.0 L 494.0,880.0 Z M 512.0,875.0 L 513.0,874.0 L 517.0,874.0 L 518.0,875.0 L 518.0,876.0 L 516.0,878.0 L 515.0,878.0 L 514.0,877.0 L 513.0,877.0 L 512.0,876.0 Z M 794.0,630.0 L 793.0,629.0 L 788.0,635.0 L 787.0,635.0 L 784.0,632.0 L 780.0,634.0 L 780.0,635.0 L 781.0,634.0 L 783.0,634.0 L 784.0,635.0 L 782.0,637.0 L 782.0,643.0 L 780.0,645.0 L 778.0,645.0 L 774.0,643.0 L 772.0,644.0 L 768.0,639.0 L 766.0,639.0 L 766.0,640.0 L 763.0,643.0 L 764.0,644.0 L 764.0,646.0 L 762.0,648.0 L 756.0,648.0 L 754.0,646.0 L 754.0,643.0 L 753.0,642.0 L 750.0,642.0 L 748.0,640.0 L 740.0,640.0 L 737.0,642.0 L 735.0,642.0 L 731.0,644.0 L 718.0,644.0 L 717.0,648.0 L 716.0,649.0 L 715.0,649.0 L 713.0,647.0 L 711.0,647.0 L 711.0,648.0 L 706.0,653.0 L 703.0,650.0 L 702.0,650.0 L 695.0,656.0 L 695.0,658.0 L 693.0,660.0 L 692.0,659.0 L 689.0,659.0 L 688.0,661.0 L 687.0,661.0 L 684.0,664.0 L 683.0,664.0 L 680.0,667.0 L 675.0,670.0 L 675.0,671.0 L 679.0,673.0 L 685.0,673.0 L 689.0,676.0 L 692.0,676.0 L 693.0,675.0 L 695.0,675.0 L 696.0,676.0 L 699.0,676.0 L 701.0,675.0 L 703.0,676.0 L 705.0,675.0 L 707.0,677.0 L 707.0,678.0 L 710.0,680.0 L 711.0,679.0 L 712.0,680.0 L 717.0,680.0 L 720.0,678.0 L 723.0,678.0 L 724.0,679.0 L 726.0,679.0 L 727.0,678.0 L 733.0,678.0 L 735.0,676.0 L 741.0,676.0 L 742.0,675.0 L 745.0,675.0 L 748.0,679.0 L 752.0,678.0 L 754.0,680.0 L 756.0,680.0 L 760.0,677.0 L 762.0,677.0 L 764.0,679.0 L 764.0,680.0 L 765.0,680.0 L 765.0,679.0 L 768.0,676.0 L 768.0,675.0 L 774.0,667.0 L 776.0,663.0 L 776.0,661.0 L 779.0,659.0 L 779.0,657.0 L 781.0,655.0 L 782.0,651.0 L 784.0,650.0 L 784.0,648.0 L 783.0,647.0 L 789.0,641.0 L 789.0,638.0 L 792.0,632.0 Z M 204.0,627.0 L 206.0,629.0 L 206.0,633.0 L 207.0,634.0 L 209.0,634.0 L 211.0,636.0 L 209.0,639.0 L 211.0,641.0 L 211.0,644.0 L 214.0,647.0 L 214.0,649.0 L 217.0,652.0 L 217.0,655.0 L 218.0,657.0 L 221.0,660.0 L 221.0,662.0 L 225.0,668.0 L 232.0,674.0 L 231.0,675.0 L 232.0,677.0 L 234.0,675.0 L 236.0,676.0 L 237.0,674.0 L 240.0,672.0 L 241.0,673.0 L 240.0,675.0 L 241.0,676.0 L 244.0,673.0 L 246.0,673.0 L 247.0,672.0 L 247.0,670.0 L 249.0,668.0 L 252.0,669.0 L 256.0,673.0 L 264.0,673.0 L 266.0,671.0 L 268.0,671.0 L 269.0,672.0 L 270.0,671.0 L 273.0,671.0 L 274.0,672.0 L 282.0,671.0 L 283.0,670.0 L 286.0,670.0 L 288.0,668.0 L 294.0,668.0 L 297.0,665.0 L 301.0,665.0 L 302.0,666.0 L 304.0,666.0 L 306.0,664.0 L 307.0,665.0 L 307.0,668.0 L 310.0,669.0 L 312.0,666.0 L 314.0,669.0 L 315.0,669.0 L 317.0,666.0 L 316.0,664.0 L 315.0,664.0 L 314.0,666.0 L 312.0,666.0 L 311.0,665.0 L 312.0,664.0 L 312.0,662.0 L 303.0,654.0 L 299.0,652.0 L 289.0,642.0 L 283.0,638.0 L 278.0,632.0 L 276.0,632.0 L 272.0,634.0 L 267.0,640.0 L 263.0,637.0 L 263.0,635.0 L 267.0,632.0 L 266.0,630.0 L 265.0,630.0 L 263.0,633.0 L 256.0,627.0 L 245.0,627.0 L 243.0,629.0 L 241.0,629.0 L 240.0,628.0 L 236.0,628.0 L 235.0,627.0 L 233.0,628.0 L 228.0,628.0 L 226.0,626.0 L 225.0,623.0 L 223.0,622.0 L 222.0,633.0 L 217.0,638.0 L 215.0,638.0 L 213.0,635.0 L 211.0,635.0 L 208.0,632.0 L 210.0,629.0 L 207.0,627.0 L 208.0,625.0 L 208.0,623.0 L 207.0,622.0 Z M 223.0,632.0 L 224.0,631.0 L 228.0,631.0 L 230.0,633.0 L 228.0,635.0 L 226.0,635.0 L 225.0,634.0 L 224.0,634.0 L 223.0,633.0 Z M 593.0,637.0 L 593.0,638.0 L 594.0,638.0 L 595.0,637.0 L 598.0,640.0 L 598.0,642.0 L 603.0,642.0 L 604.0,643.0 L 606.0,643.0 L 610.0,647.0 L 610.0,648.0 L 616.0,654.0 L 619.0,654.0 L 620.0,655.0 L 621.0,654.0 L 622.0,654.0 L 623.0,655.0 L 624.0,655.0 L 625.0,656.0 L 626.0,659.0 L 628.0,661.0 L 629.0,661.0 L 631.0,663.0 L 634.0,664.0 L 637.0,667.0 L 637.0,670.0 L 637.0,669.0 L 638.0,668.0 L 639.0,668.0 L 641.0,666.0 L 642.0,666.0 L 642.0,665.0 L 643.0,664.0 L 646.0,663.0 L 648.0,661.0 L 649.0,661.0 L 649.0,660.0 L 650.0,659.0 L 653.0,658.0 L 654.0,657.0 L 654.0,655.0 L 657.0,652.0 L 661.0,652.0 L 665.0,648.0 L 664.0,647.0 L 664.0,645.0 L 666.0,643.0 L 666.0,640.0 L 668.0,638.0 L 674.0,638.0 L 675.0,639.0 L 676.0,639.0 L 673.0,636.0 L 673.0,635.0 L 672.0,634.0 L 671.0,634.0 L 668.0,631.0 L 668.0,629.0 L 667.0,628.0 L 666.0,629.0 L 664.0,629.0 L 663.0,628.0 L 662.0,628.0 L 661.0,627.0 L 660.0,624.0 L 659.0,624.0 L 658.0,623.0 L 656.0,623.0 L 653.0,625.0 L 650.0,622.0 L 650.0,620.0 L 649.0,619.0 L 644.0,619.0 L 641.0,616.0 L 639.0,616.0 L 638.0,615.0 L 638.0,613.0 L 637.0,612.0 L 635.0,614.0 L 626.0,614.0 L 625.0,615.0 L 621.0,615.0 L 620.0,616.0 L 619.0,616.0 L 618.0,615.0 L 621.0,612.0 L 621.0,611.0 L 619.0,611.0 L 616.0,614.0 L 615.0,614.0 L 614.0,613.0 L 613.0,613.0 L 612.0,614.0 L 610.0,614.0 L 608.0,616.0 L 608.0,617.0 L 605.0,620.0 L 604.0,623.0 L 600.0,627.0 L 600.0,628.0 L 598.0,630.0 L 598.0,632.0 L 597.0,633.0 L 596.0,633.0 L 594.0,635.0 L 594.0,636.0 Z M 374.0,599.0 L 372.0,599.0 L 370.0,600.0 L 367.0,603.0 L 365.0,603.0 L 364.0,602.0 L 362.0,603.0 L 361.0,606.0 L 364.0,608.0 L 366.0,608.0 L 368.0,610.0 L 368.0,614.0 L 367.0,615.0 L 365.0,615.0 L 364.0,614.0 L 363.0,615.0 L 364.0,616.0 L 362.0,618.0 L 361.0,618.0 L 360.0,620.0 L 361.0,621.0 L 361.0,624.0 L 359.0,626.0 L 353.0,626.0 L 351.0,623.0 L 349.0,623.0 L 347.0,625.0 L 347.0,627.0 L 341.0,632.0 L 339.0,632.0 L 337.0,636.0 L 333.0,638.0 L 332.0,640.0 L 333.0,641.0 L 332.0,642.0 L 330.0,642.0 L 330.0,643.0 L 333.0,645.0 L 333.0,648.0 L 334.0,649.0 L 335.0,649.0 L 341.0,654.0 L 342.0,654.0 L 347.0,659.0 L 348.0,659.0 L 350.0,661.0 L 354.0,663.0 L 365.0,673.0 L 368.0,674.0 L 366.0,672.0 L 366.0,663.0 L 367.0,662.0 L 367.0,659.0 L 366.0,658.0 L 366.0,656.0 L 368.0,654.0 L 370.0,655.0 L 372.0,655.0 L 373.0,654.0 L 376.0,654.0 L 381.0,657.0 L 383.0,656.0 L 383.0,655.0 L 386.0,652.0 L 388.0,652.0 L 390.0,654.0 L 396.0,647.0 L 397.0,645.0 L 397.0,641.0 L 398.0,640.0 L 401.0,640.0 L 403.0,642.0 L 403.0,643.0 L 406.0,643.0 L 408.0,644.0 L 405.0,638.0 L 403.0,636.0 L 403.0,635.0 L 401.0,633.0 L 399.0,629.0 L 393.0,622.0 L 391.0,618.0 L 385.0,615.0 L 383.0,609.0 L 377.0,603.0 L 375.0,604.0 L 372.0,604.0 L 370.0,602.0 L 371.0,600.0 L 373.0,600.0 Z" fill="rgb(67,151,25)"/>
</svg>
